<svg width="962" height="1443" viewBox="0 0 962 1443" fill="none" xmlns="http://www.w3.org/2000/svg">
<rect x="64" y="1322" width="363" height="60" rx="12" stroke="#2666E6" stroke-width="4"/>
<path d="M94.676 1365.5V1340.44H100.328V1365.5H94.676ZM86.72 1345.02V1340.08H108.284V1345.02H86.72ZM114.061 1365.86C112.453 1365.86 111.013 1365.46 109.741 1364.67C108.493 1363.88 107.497 1362.8 106.753 1361.43C106.033 1360.06 105.673 1358.5 105.673 1356.75C105.673 1355 106.033 1353.44 106.753 1352.07C107.497 1350.7 108.493 1349.62 109.741 1348.83C111.013 1348.04 112.453 1347.64 114.061 1347.64C115.237 1347.64 116.293 1347.87 117.229 1348.33C118.189 1348.78 118.969 1349.42 119.569 1350.24C120.169 1351.03 120.505 1351.94 120.577 1352.97V1360.53C120.505 1361.56 120.169 1362.49 119.569 1363.3C118.993 1364.1 118.225 1364.72 117.265 1365.18C116.305 1365.63 115.237 1365.86 114.061 1365.86ZM115.177 1360.89C116.353 1360.89 117.301 1360.51 118.021 1359.74C118.741 1358.95 119.101 1357.95 119.101 1356.75C119.101 1355.94 118.933 1355.22 118.597 1354.59C118.285 1353.97 117.829 1353.49 117.229 1353.15C116.653 1352.79 115.981 1352.61 115.213 1352.61C114.445 1352.61 113.761 1352.79 113.161 1353.15C112.585 1353.49 112.117 1353.97 111.757 1354.59C111.421 1355.22 111.253 1355.94 111.253 1356.75C111.253 1357.54 111.421 1358.25 111.757 1358.88C112.093 1359.5 112.561 1359.99 113.161 1360.35C113.761 1360.71 114.433 1360.89 115.177 1360.89ZM118.885 1365.5V1360.78L119.713 1356.54L118.885 1352.29V1348H124.285V1365.5H118.885ZM128.163 1365.5V1348H133.671V1365.5H128.163ZM139.359 1365.5V1355.28C139.359 1354.39 139.083 1353.7 138.531 1353.22C138.003 1352.72 137.343 1352.47 136.551 1352.47C135.999 1352.47 135.507 1352.59 135.075 1352.83C134.643 1353.04 134.295 1353.36 134.031 1353.76C133.791 1354.17 133.671 1354.68 133.671 1355.28L131.547 1354.34C131.547 1352.95 131.847 1351.76 132.447 1350.78C133.047 1349.77 133.863 1349 134.895 1348.47C135.927 1347.92 137.091 1347.64 138.387 1347.64C139.611 1347.64 140.703 1347.92 141.663 1348.47C142.647 1349.02 143.427 1349.79 144.003 1350.78C144.579 1351.76 144.867 1352.94 144.867 1354.3V1365.5H139.359ZM150.555 1365.5V1355.28C150.555 1354.39 150.279 1353.7 149.727 1353.22C149.199 1352.72 148.539 1352.47 147.747 1352.47C147.195 1352.47 146.703 1352.59 146.271 1352.83C145.839 1353.04 145.491 1353.36 145.227 1353.76C144.987 1354.17 144.867 1354.68 144.867 1355.28L141.699 1354.84C141.747 1353.36 142.095 1352.08 142.743 1351.03C143.415 1349.95 144.291 1349.12 145.371 1348.54C146.475 1347.94 147.711 1347.64 149.079 1347.64C150.423 1347.64 151.611 1347.93 152.643 1348.51C153.699 1349.06 154.527 1349.86 155.127 1350.92C155.751 1351.95 156.063 1353.2 156.063 1354.66V1365.5H150.555ZM169.672 1365.86C168.496 1365.86 167.416 1365.63 166.432 1365.18C165.448 1364.72 164.644 1364.1 164.02 1363.3C163.396 1362.49 163.036 1361.56 162.94 1360.53V1353.15C163.036 1352.12 163.396 1351.18 164.02 1350.34C164.644 1349.5 165.448 1348.84 166.432 1348.36C167.416 1347.88 168.496 1347.64 169.672 1347.64C171.328 1347.64 172.792 1348.04 174.064 1348.83C175.36 1349.62 176.368 1350.7 177.088 1352.07C177.832 1353.44 178.204 1355 178.204 1356.75C178.204 1358.5 177.832 1360.06 177.088 1361.43C176.368 1362.8 175.36 1363.88 174.064 1364.67C172.792 1365.46 171.328 1365.86 169.672 1365.86ZM159.592 1372.88V1348H165.1V1352.5L164.2 1356.75L165.028 1361V1372.88H159.592ZM168.664 1360.89C169.456 1360.89 170.14 1360.71 170.716 1360.35C171.316 1359.99 171.784 1359.5 172.12 1358.88C172.456 1358.25 172.624 1357.54 172.624 1356.75C172.624 1355.94 172.456 1355.22 172.12 1354.59C171.784 1353.97 171.316 1353.49 170.716 1353.15C170.14 1352.79 169.468 1352.61 168.7 1352.61C167.932 1352.61 167.248 1352.79 166.648 1353.15C166.072 1353.49 165.616 1353.97 165.28 1354.59C164.944 1355.22 164.776 1355.94 164.776 1356.75C164.776 1357.54 164.932 1358.25 165.244 1358.88C165.58 1359.5 166.048 1359.99 166.648 1360.35C167.248 1360.71 167.92 1360.89 168.664 1360.89ZM189.643 1365.9C187.747 1365.9 186.055 1365.51 184.567 1364.74C183.103 1363.95 181.951 1362.86 181.111 1361.47C180.271 1360.08 179.851 1358.5 179.851 1356.75C179.851 1355 180.259 1353.44 181.075 1352.07C181.915 1350.68 183.043 1349.59 184.459 1348.8C185.875 1348 187.471 1347.61 189.247 1347.61C190.975 1347.61 192.499 1347.98 193.819 1348.72C195.139 1349.47 196.171 1350.5 196.915 1351.82C197.683 1353.14 198.067 1354.65 198.067 1356.36C198.067 1356.67 198.043 1357 197.995 1357.36C197.971 1357.7 197.911 1358.1 197.815 1358.55L182.731 1358.59V1354.81L195.475 1354.77L193.099 1356.36C193.075 1355.35 192.919 1354.52 192.631 1353.87C192.343 1353.2 191.911 1352.7 191.335 1352.36C190.783 1352 190.099 1351.82 189.283 1351.82C188.419 1351.82 187.663 1352.02 187.015 1352.43C186.391 1352.82 185.899 1353.37 185.539 1354.09C185.203 1354.81 185.035 1355.68 185.035 1356.72C185.035 1357.75 185.215 1358.64 185.575 1359.38C185.959 1360.1 186.487 1360.66 187.159 1361.07C187.855 1361.46 188.671 1361.65 189.607 1361.65C190.471 1361.65 191.251 1361.5 191.947 1361.22C192.643 1360.9 193.255 1360.45 193.783 1359.85L196.807 1362.87C195.943 1363.88 194.899 1364.64 193.675 1365.14C192.451 1365.64 191.107 1365.9 189.643 1365.9ZM200.725 1365.5V1348H206.233V1365.5H200.725ZM206.233 1355.89L203.929 1354.09C204.385 1352.05 205.153 1350.46 206.233 1349.34C207.313 1348.21 208.813 1347.64 210.733 1347.64C211.573 1347.64 212.305 1347.78 212.929 1348.04C213.577 1348.28 214.141 1348.66 214.621 1349.19L211.345 1353.33C211.105 1353.07 210.805 1352.86 210.445 1352.72C210.085 1352.58 209.677 1352.5 209.221 1352.5C208.309 1352.5 207.577 1352.79 207.025 1353.37C206.497 1353.92 206.233 1354.76 206.233 1355.89ZM224.236 1365.9C222.34 1365.9 220.648 1365.51 219.16 1364.74C217.696 1363.95 216.544 1362.86 215.704 1361.47C214.864 1360.08 214.444 1358.5 214.444 1356.75C214.444 1355 214.852 1353.44 215.668 1352.07C216.508 1350.68 217.636 1349.59 219.052 1348.8C220.468 1348 222.064 1347.61 223.84 1347.61C225.568 1347.61 227.092 1347.98 228.412 1348.72C229.732 1349.47 230.764 1350.5 231.508 1351.82C232.276 1353.14 232.66 1354.65 232.66 1356.36C232.66 1356.67 232.636 1357 232.588 1357.36C232.564 1357.7 232.504 1358.1 232.408 1358.55L217.324 1358.59V1354.81L230.068 1354.77L227.692 1356.36C227.668 1355.35 227.512 1354.52 227.224 1353.87C226.936 1353.2 226.504 1352.7 225.928 1352.36C225.376 1352 224.692 1351.82 223.876 1351.82C223.012 1351.82 222.256 1352.02 221.608 1352.43C220.984 1352.82 220.492 1353.37 220.132 1354.09C219.796 1354.81 219.628 1355.68 219.628 1356.72C219.628 1357.75 219.808 1358.64 220.168 1359.38C220.552 1360.1 221.08 1360.66 221.752 1361.07C222.448 1361.46 223.264 1361.65 224.2 1361.65C225.064 1361.65 225.844 1361.5 226.54 1361.22C227.236 1360.9 227.848 1360.45 228.376 1359.85L231.4 1362.87C230.536 1363.88 229.492 1364.64 228.268 1365.14C227.044 1365.64 225.7 1365.9 224.236 1365.9Z" fill="#2666E6"/>
<g clip-path="url(#clip0_1_28)">
<line y1="-1" x2="80" y2="-1" transform="matrix(0.6 -0.8 0.714359 0.69978 252 1384)" stroke="#2666E6" stroke-width="2"/>
<line y1="-1" x2="80" y2="-1" transform="matrix(0.6 -0.8 0.714359 0.69978 244 1384)" stroke="#2666E6" stroke-width="2"/>
<line y1="-1" x2="80" y2="-1" transform="matrix(0.6 -0.8 0.714359 0.69978 236 1384)" stroke="#2666E6" stroke-width="2"/>
<line y1="-1" x2="80" y2="-1" transform="matrix(0.6 -0.8 0.714359 0.69978 228 1384)" stroke="#2666E6" stroke-width="2"/>
<line y1="-1" x2="80" y2="-1" transform="matrix(0.6 -0.8 0.714359 0.69978 220 1384)" stroke="#2666E6" stroke-width="2"/>
<line y1="-1" x2="80" y2="-1" transform="matrix(0.6 -0.8 0.714359 0.69978 212 1384)" stroke="#2666E6" stroke-width="2"/>
<line y1="-1" x2="80" y2="-1" transform="matrix(0.6 -0.8 0.714359 0.69978 260 1384)" stroke="#2666E6" stroke-width="2"/>
<line y1="-1" x2="80" y2="-1" transform="matrix(0.6 -0.8 0.714359 0.69978 268 1384)" stroke="#2666E6" stroke-width="2"/>
<line y1="-1" x2="80" y2="-1" transform="matrix(0.6 -0.8 0.714359 0.69978 276 1384)" stroke="#2666E6" stroke-width="2"/>
<line y1="-1" x2="80" y2="-1" transform="matrix(0.6 -0.8 0.714359 0.69978 284 1384)" stroke="#2666E6" stroke-width="2"/>
<line y1="-1" x2="80" y2="-1" transform="matrix(0.6 -0.8 0.714359 0.69978 292 1384)" stroke="#2666E6" stroke-width="2"/>
<line y1="-1" x2="80" y2="-1" transform="matrix(0.6 -0.8 0.714359 0.69978 300 1384)" stroke="#2666E6" stroke-width="2"/>
</g>
<rect x="252" y="1324" width="48" height="56" stroke="#2666E6" stroke-width="4"/>
<path d="M318.864 1362.33L328.62 1352.25C329.22 1351.65 329.7 1351.1 330.06 1350.6C330.42 1350.09 330.684 1349.62 330.852 1349.19C331.02 1348.74 331.104 1348.28 331.104 1347.82C331.104 1346.84 330.78 1346.07 330.132 1345.52C329.508 1344.94 328.68 1344.66 327.648 1344.66C326.64 1344.66 325.728 1344.93 324.912 1345.48C324.12 1346.01 323.352 1346.89 322.608 1348.11L318.828 1344.84C319.836 1343.13 321.12 1341.85 322.68 1340.98C324.24 1340.12 326.028 1339.69 328.044 1339.69C329.796 1339.69 331.308 1340.01 332.58 1340.66C333.876 1341.31 334.872 1342.23 335.568 1343.43C336.288 1344.63 336.648 1346.04 336.648 1347.64C336.648 1348.65 336.516 1349.59 336.252 1350.45C335.988 1351.29 335.556 1352.13 334.956 1352.97C334.38 1353.79 333.6 1354.69 332.616 1355.67L325.848 1362.4L318.864 1362.33ZM318.864 1365.5V1362.33L323.652 1360.68H337.152V1365.5H318.864ZM356.14 1365.5L345.844 1352.25L355.816 1340.08H362.8L351.568 1353.3V1350.99L363.16 1365.5H356.14ZM340.768 1365.5V1340.08H346.42V1365.5H340.768ZM364.567 1362.33L374.323 1352.25C374.923 1351.65 375.403 1351.1 375.763 1350.6C376.123 1350.09 376.387 1349.62 376.555 1349.19C376.723 1348.74 376.807 1348.28 376.807 1347.82C376.807 1346.84 376.483 1346.07 375.835 1345.52C375.211 1344.94 374.383 1344.66 373.351 1344.66C372.343 1344.66 371.431 1344.93 370.615 1345.48C369.823 1346.01 369.055 1346.89 368.311 1348.11L364.531 1344.84C365.539 1343.13 366.823 1341.85 368.383 1340.98C369.943 1340.12 371.731 1339.69 373.747 1339.69C375.499 1339.69 377.011 1340.01 378.283 1340.66C379.579 1341.31 380.575 1342.23 381.271 1343.43C381.991 1344.63 382.351 1346.04 382.351 1347.64C382.351 1348.65 382.219 1349.59 381.955 1350.45C381.691 1351.29 381.259 1352.13 380.659 1352.97C380.083 1353.79 379.303 1354.69 378.319 1355.67L371.551 1362.4L364.567 1362.33ZM364.567 1365.5V1362.33L369.355 1360.68H382.855V1365.5H364.567ZM394.355 1365.9C392.579 1365.9 390.971 1365.5 389.531 1364.71C388.115 1363.92 386.987 1362.86 386.147 1361.54C385.331 1360.2 384.923 1358.7 384.923 1357.04C384.923 1354.88 385.679 1352.7 387.191 1350.49L394.355 1340.08H400.727L392.771 1351.17L390.647 1351.35C390.983 1350.78 391.331 1350.28 391.691 1349.88C392.075 1349.44 392.555 1349.12 393.131 1348.9C393.707 1348.66 394.439 1348.54 395.327 1348.54C396.911 1348.54 398.327 1348.92 399.575 1349.66C400.847 1350.38 401.867 1351.38 402.635 1352.65C403.403 1353.9 403.787 1355.34 403.787 1356.97C403.787 1358.62 403.367 1360.14 402.527 1361.5C401.687 1362.85 400.559 1363.92 399.143 1364.71C397.727 1365.5 396.131 1365.9 394.355 1365.9ZM394.355 1360.96C395.099 1360.96 395.771 1360.78 396.371 1360.42C396.971 1360.06 397.439 1359.57 397.775 1358.95C398.111 1358.32 398.279 1357.63 398.279 1356.86C398.279 1356.07 398.111 1355.37 397.775 1354.77C397.439 1354.15 396.971 1353.67 396.371 1353.33C395.771 1352.97 395.099 1352.79 394.355 1352.79C393.587 1352.79 392.903 1352.97 392.303 1353.33C391.727 1353.67 391.271 1354.15 390.935 1354.77C390.599 1355.37 390.431 1356.07 390.431 1356.86C390.431 1357.63 390.599 1358.32 390.935 1358.95C391.271 1359.57 391.727 1360.06 392.303 1360.42C392.903 1360.78 393.587 1360.96 394.355 1360.96Z" fill="#2666E6"/>
<g filter="url(#filter0_n_1_28)">
<path d="M66 515C66 266.472 267.472 65 516 65H889C894.523 65 899 69.4772 899 75V381C899 629.528 697.528 831 449 831H76C70.4771 831 66 826.523 66 821V515Z" fill="url(#paint0_linear_1_28)"/>
</g>
<path d="M112.92 922.4V934.544H94.792V984H82.648V934.544H64.52V922.4H112.92ZM162.586 956.016V984H150.442V959.36C150.442 957.805 150.06 956.412 149.298 955.18C148.564 953.919 147.567 952.921 146.306 952.188C145.074 951.455 143.695 951.088 142.17 951.088C140.644 951.088 139.251 951.455 137.99 952.188C136.728 952.921 135.731 953.919 134.998 955.18C134.264 956.412 133.898 957.805 133.898 959.36V984H121.754L121.71 918H133.854L133.898 943.256C135.364 941.848 137.08 940.748 139.046 939.956C141.04 939.164 143.138 938.768 145.338 938.768C148.535 938.768 151.424 939.545 154.006 941.1C156.616 942.655 158.699 944.737 160.254 947.348C161.808 949.929 162.586 952.819 162.586 956.016ZM171.382 940H183.526V984H171.382V940ZM177.542 934.94C175.782 934.94 174.3 934.353 173.098 933.18C171.895 932.007 171.294 930.555 171.294 928.824C171.294 927.093 171.895 925.641 173.098 924.468C174.3 923.295 175.767 922.708 177.498 922.708C179.228 922.708 180.68 923.295 181.854 924.468C183.056 925.641 183.658 927.093 183.658 928.824C183.658 930.555 183.071 932.007 181.898 933.18C180.754 934.353 179.302 934.94 177.542 934.94ZM234.515 956.016V984H222.371V959.36C222.371 957.805 221.99 956.412 221.227 955.18C220.494 953.919 219.497 952.921 218.235 952.188C217.003 951.455 215.625 951.088 214.099 951.088C212.574 951.088 211.181 951.455 209.919 952.188C208.658 952.921 207.661 953.919 206.927 955.18C206.194 956.412 205.827 957.805 205.827 959.36V984H193.683L193.639 940H205.783L205.827 943.256C207.294 941.848 209.01 940.748 210.975 939.956C212.97 939.164 215.067 938.768 217.267 938.768C220.465 938.768 223.354 939.545 225.935 941.1C228.546 942.655 230.629 944.737 232.183 947.348C233.738 949.929 234.515 952.819 234.515 956.016ZM261.812 985.144C257.764 985.144 254.068 984.103 250.724 982.02C247.409 979.937 244.755 977.136 242.76 973.616C240.795 970.096 239.812 966.209 239.812 961.956C239.812 958.759 240.384 955.767 241.528 952.98C242.672 950.164 244.241 947.7 246.236 945.588C248.26 943.447 250.607 941.775 253.276 940.572C255.945 939.369 258.791 938.768 261.812 938.768C265.303 938.768 268.485 939.516 271.36 941.012C274.264 942.508 276.713 944.547 278.708 947.128C280.732 949.709 282.169 952.628 283.02 955.884C283.9 959.14 284.047 962.528 283.46 966.048H252.924C253.305 967.339 253.892 968.512 254.684 969.568C255.505 970.595 256.503 971.416 257.676 972.032C258.879 972.648 260.257 972.971 261.812 973C263.337 973.029 264.745 972.677 266.036 971.944C267.327 971.211 268.427 970.228 269.336 968.996L281.744 971.856C279.955 975.757 277.285 978.955 273.736 981.448C270.187 983.912 266.212 985.144 261.812 985.144ZM252.484 957.072H271.184C270.803 955.605 270.157 954.285 269.248 953.112C268.339 951.939 267.239 951.015 265.948 950.34C264.687 949.665 263.308 949.328 261.812 949.328C260.345 949.328 258.967 949.665 257.676 950.34C256.415 951.015 255.329 951.939 254.42 953.112C253.54 954.256 252.895 955.576 252.484 957.072ZM314.685 952.144H306.765V984H294.621V952.144H288.549V940H294.621V926.184H306.765V940H314.685V952.144ZM363.508 956.016V984H351.364V959.36C351.364 957.805 350.982 956.412 350.22 955.18C349.486 953.919 348.489 952.921 347.228 952.188C345.996 951.455 344.617 951.088 343.092 951.088C341.566 951.088 340.173 951.455 338.912 952.188C337.65 952.921 336.653 953.919 335.92 955.18C335.186 956.412 334.82 957.805 334.82 959.36V984H322.676L322.632 918H334.776L334.82 943.256C336.286 941.848 338.002 940.748 339.968 939.956C341.962 939.164 344.06 938.768 346.26 938.768C349.457 938.768 352.346 939.545 354.928 941.1C357.538 942.655 359.621 944.737 361.176 947.348C362.73 949.929 363.508 952.819 363.508 956.016ZM415.84 985.144C412.379 985.144 409.064 984.601 405.896 983.516C402.757 982.431 400 980.861 397.624 978.808C395.277 976.755 393.591 974.32 392.564 971.504L403.96 967.28C404.312 968.277 405.045 969.216 406.16 970.096C407.275 970.947 408.668 971.651 410.34 972.208C412.012 972.736 413.845 973 415.84 973C417.747 973 419.536 972.721 421.208 972.164C422.909 971.577 424.273 970.771 425.3 969.744C426.356 968.717 426.884 967.515 426.884 966.136C426.884 964.757 426.341 963.613 425.256 962.704C424.171 961.795 422.777 961.076 421.076 960.548C419.375 959.991 417.629 959.565 415.84 959.272C411.411 958.627 407.436 957.585 403.916 956.148C400.425 954.681 397.668 952.672 395.644 950.12C393.62 947.539 392.608 944.268 392.608 940.308C392.608 936.495 393.679 933.165 395.82 930.32C397.991 927.475 400.836 925.26 404.356 923.676C407.905 922.092 411.733 921.3 415.84 921.3C419.243 921.3 422.528 921.843 425.696 922.928C428.864 924.013 431.621 925.583 433.968 927.636C436.344 929.689 438.045 932.153 439.072 935.028L427.676 939.164C427.324 938.167 426.591 937.243 425.476 936.392C424.361 935.541 422.968 934.852 421.296 934.324C419.624 933.796 417.805 933.532 415.84 933.532C413.963 933.503 412.173 933.781 410.472 934.368C408.8 934.955 407.421 935.761 406.336 936.788C405.28 937.815 404.752 938.988 404.752 940.308C404.752 942.039 405.251 943.344 406.248 944.224C407.275 945.104 408.624 945.735 410.296 946.116C411.968 946.497 413.816 946.835 415.84 947.128C420.005 947.744 423.848 948.844 427.368 950.428C430.888 951.983 433.704 954.065 435.816 956.676C437.957 959.257 439.028 962.411 439.028 966.136C439.028 969.949 437.957 973.279 435.816 976.124C433.675 978.969 430.844 981.184 427.324 982.768C423.804 984.352 419.976 985.144 415.84 985.144ZM489.75 956.016V984H477.606V959.36C477.606 957.805 477.224 956.412 476.462 955.18C475.728 953.919 474.731 952.921 473.47 952.188C472.238 951.455 470.859 951.088 469.334 951.088C467.808 951.088 466.415 951.455 465.154 952.188C463.892 952.921 462.895 953.919 462.162 955.18C461.428 956.412 461.062 957.805 461.062 959.36V984H448.918L448.874 918H461.018L461.062 943.256C462.528 941.848 464.244 940.748 466.21 939.956C468.204 939.164 470.302 938.768 472.502 938.768C475.699 938.768 478.588 939.545 481.17 941.1C483.78 942.655 485.863 944.737 487.418 947.348C488.972 949.929 489.75 952.819 489.75 956.016ZM517.046 985.144C512.998 985.144 509.302 984.103 505.958 982.02C502.644 979.937 499.989 977.136 497.994 973.616C496.029 970.096 495.046 966.209 495.046 961.956C495.046 958.759 495.618 955.767 496.762 952.98C497.906 950.164 499.476 947.7 501.47 945.588C503.494 943.447 505.841 941.775 508.51 940.572C511.18 939.369 514.025 938.768 517.046 938.768C520.537 938.768 523.72 939.516 526.594 941.012C529.498 942.508 531.948 944.547 533.942 947.128C535.966 949.709 537.404 952.628 538.254 955.884C539.134 959.14 539.281 962.528 538.694 966.048H508.158C508.54 967.339 509.126 968.512 509.918 969.568C510.74 970.595 511.737 971.416 512.91 972.032C514.113 972.648 515.492 972.971 517.046 973C518.572 973.029 519.98 972.677 521.27 971.944C522.561 971.211 523.661 970.228 524.57 968.996L536.978 971.856C535.189 975.757 532.52 978.955 528.97 981.448C525.421 983.912 521.446 985.144 517.046 985.144ZM507.718 957.072H526.418C526.037 955.605 525.392 954.285 524.482 953.112C523.573 951.939 522.473 951.015 521.182 950.34C519.921 949.665 518.542 949.328 517.046 949.328C515.58 949.328 514.201 949.665 512.91 950.34C511.649 951.015 510.564 951.939 509.654 953.112C508.774 954.256 508.129 955.576 507.718 957.072ZM585.828 956.016V984H573.684V959.36C573.684 957.805 573.303 956.412 572.54 955.18C571.807 953.919 570.809 952.921 569.548 952.188C568.316 951.455 566.937 951.088 565.412 951.088C563.887 951.088 562.493 951.455 561.232 952.188C559.971 952.921 558.973 953.919 558.24 955.18C557.507 956.412 557.14 957.805 557.14 959.36V984H544.996L544.952 918H557.096L557.14 943.256C558.607 941.848 560.323 940.748 562.288 939.956C564.283 939.164 566.38 938.768 568.58 938.768C571.777 938.768 574.667 939.545 577.248 941.1C579.859 942.655 581.941 944.737 583.496 947.348C585.051 949.929 585.828 952.819 585.828 956.016ZM626.06 940H638.204V984H626.016L625.444 979.424C624.3 981.125 622.834 982.504 621.044 983.56C619.255 984.616 617.158 985.144 614.752 985.144C611.467 985.144 608.402 984.528 605.556 983.296C602.711 982.064 600.203 980.363 598.032 978.192C595.862 976.021 594.16 973.513 592.928 970.668C591.726 967.793 591.124 964.713 591.124 961.428C591.124 958.289 591.696 955.356 592.84 952.628C593.984 949.9 595.598 947.495 597.68 945.412C599.763 943.329 602.154 941.701 604.852 940.528C607.58 939.355 610.514 938.768 613.652 938.768C616.351 938.768 618.771 939.34 620.912 940.484C623.083 941.628 624.975 943.08 626.588 944.84L626.06 940ZM614.444 973.484C616.439 973.484 618.243 972.971 619.856 971.944C621.47 970.917 622.746 969.539 623.684 967.808C624.623 966.048 625.092 964.112 625.092 962C625.092 959.859 624.623 957.923 623.684 956.192C622.746 954.461 621.47 953.083 619.856 952.056C618.243 951.029 616.439 950.516 614.444 950.516C612.42 950.516 610.587 951.029 608.944 952.056C607.302 953.083 605.996 954.476 605.028 956.236C604.06 957.967 603.576 959.888 603.576 962C603.576 964.112 604.06 966.048 605.028 967.808C606.026 969.539 607.346 970.917 608.988 971.944C610.631 972.971 612.45 973.484 614.444 973.484ZM647.09 984L647.046 940H659.19L659.234 943.256C660.7 941.848 662.416 940.748 664.382 939.956C666.376 939.164 668.474 938.768 670.674 938.768C672.287 938.768 673.9 939.003 675.514 939.472L670.718 951.748C669.662 951.308 668.591 951.088 667.506 951.088C665.98 951.088 664.587 951.455 663.326 952.188C662.064 952.921 661.067 953.919 660.334 955.18C659.6 956.412 659.234 957.805 659.234 959.36V984H647.09ZM710.537 940H722.681V984H710.493L709.921 979.424C708.777 981.125 707.31 982.504 705.521 983.56C703.732 984.616 701.634 985.144 699.229 985.144C695.944 985.144 692.878 984.528 690.033 983.296C687.188 982.064 684.68 980.363 682.509 978.192C680.338 976.021 678.637 973.513 677.405 970.668C676.202 967.793 675.601 964.713 675.601 961.428C675.601 958.289 676.173 955.356 677.317 952.628C678.461 949.9 680.074 947.495 682.157 945.412C684.24 943.329 686.63 941.701 689.329 940.528C692.057 939.355 694.99 938.768 698.129 938.768C700.828 938.768 703.248 939.34 705.389 940.484C707.56 941.628 709.452 943.08 711.065 944.84L710.537 940ZM698.921 973.484C700.916 973.484 702.72 972.971 704.333 971.944C705.946 970.917 707.222 969.539 708.161 967.808C709.1 966.048 709.569 964.112 709.569 962C709.569 959.859 709.1 957.923 708.161 956.192C707.222 954.461 705.946 953.083 704.333 952.056C702.72 951.029 700.916 950.516 698.921 950.516C696.897 950.516 695.064 951.029 693.421 952.056C691.778 953.083 690.473 954.476 689.505 956.236C688.537 957.967 688.053 959.888 688.053 962C688.053 964.112 688.537 966.048 689.505 967.808C690.502 969.539 691.822 970.917 693.465 971.944C695.108 972.971 696.926 973.484 698.921 973.484Z" fill="#2666E6"/>
<path d="M78.38 1052.52C76.8467 1052.52 75.3733 1052.28 73.96 1051.8C72.5467 1051.32 71.3133 1050.63 70.26 1049.74C69.2067 1048.83 68.4533 1047.76 68 1046.52L71.9 1045.06C72.1267 1045.7 72.56 1046.27 73.2 1046.78C73.8533 1047.27 74.6267 1047.66 75.52 1047.94C76.4267 1048.22 77.38 1048.36 78.38 1048.36C79.4467 1048.36 80.4467 1048.19 81.38 1047.84C82.3267 1047.49 83.0867 1047.01 83.66 1046.4C84.2467 1045.79 84.54 1045.07 84.54 1044.24C84.54 1043.39 84.2333 1042.69 83.62 1042.14C83.02 1041.59 82.2467 1041.16 81.3 1040.84C80.3667 1040.52 79.3933 1040.28 78.38 1040.12C76.42 1039.8 74.66 1039.33 73.1 1038.72C71.5533 1038.11 70.3267 1037.25 69.42 1036.14C68.5267 1035.03 68.08 1033.59 68.08 1031.82C68.08 1030.15 68.5533 1028.7 69.5 1027.46C70.46 1026.22 71.72 1025.26 73.28 1024.58C74.8533 1023.89 76.5533 1023.54 78.38 1023.54C79.8867 1023.54 81.34 1023.78 82.74 1024.26C84.1533 1024.73 85.3933 1025.41 86.46 1026.32C87.54 1027.21 88.3133 1028.3 88.78 1029.58L84.84 1031C84.6133 1030.35 84.18 1029.78 83.54 1029.3C82.9 1028.81 82.1267 1028.42 81.22 1028.14C80.3267 1027.86 79.38 1027.72 78.38 1027.72C77.3133 1027.71 76.3133 1027.88 75.38 1028.24C74.46 1028.59 73.7067 1029.07 73.12 1029.68C72.5333 1030.29 72.24 1031.01 72.24 1031.82C72.24 1032.82 72.5133 1033.58 73.06 1034.1C73.6067 1034.62 74.34 1035.01 75.26 1035.26C76.1933 1035.5 77.2333 1035.72 78.38 1035.92C80.22 1036.21 81.92 1036.7 83.48 1037.38C85.0533 1038.06 86.3133 1038.97 87.26 1040.1C88.22 1041.22 88.7 1042.6 88.7 1044.24C88.7 1045.89 88.22 1047.35 87.26 1048.6C86.3133 1049.84 85.0533 1050.81 83.48 1051.5C81.92 1052.18 80.22 1052.52 78.38 1052.52ZM105.858 1052.52C104.018 1052.52 102.338 1052.05 100.818 1051.1C99.3111 1050.15 98.1045 1048.89 97.1978 1047.3C96.3045 1045.7 95.8578 1043.93 95.8578 1042C95.8578 1040.53 96.1178 1039.17 96.6378 1037.9C97.1578 1036.62 97.8711 1035.5 98.7778 1034.54C99.6978 1033.57 100.764 1032.81 101.978 1032.26C103.191 1031.71 104.484 1031.44 105.858 1031.44C107.698 1031.44 109.371 1031.91 110.878 1032.86C112.398 1033.81 113.604 1035.08 114.498 1036.68C115.404 1038.28 115.858 1040.05 115.858 1042C115.858 1043.45 115.598 1044.81 115.078 1046.08C114.558 1047.35 113.838 1048.47 112.918 1049.44C112.011 1050.4 110.951 1051.15 109.738 1051.7C108.538 1052.25 107.244 1052.52 105.858 1052.52ZM105.858 1048.36C106.964 1048.36 107.958 1048.07 108.838 1047.48C109.718 1046.89 110.411 1046.12 110.918 1045.16C111.438 1044.19 111.698 1043.13 111.698 1042C111.698 1040.84 111.431 1039.77 110.898 1038.8C110.378 1037.83 109.678 1037.05 108.798 1036.48C107.918 1035.89 106.938 1035.6 105.858 1035.6C104.764 1035.6 103.771 1035.89 102.878 1036.48C101.998 1037.07 101.298 1037.85 100.778 1038.82C100.271 1039.79 100.018 1040.85 100.018 1042C100.018 1043.19 100.284 1044.26 100.818 1045.22C101.351 1046.18 102.058 1046.95 102.938 1047.52C103.831 1048.08 104.804 1048.36 105.858 1048.36ZM128.981 1027.46V1032H134.621V1036.16H128.981V1052H124.821V1036.16H122.441V1032H124.821V1027.46C124.821 1026.37 125.087 1025.37 125.621 1024.48C126.154 1023.57 126.867 1022.85 127.761 1022.32C128.667 1021.79 129.674 1021.52 130.781 1021.52C131.581 1021.52 132.361 1021.68 133.121 1022C133.881 1022.32 134.561 1022.81 135.161 1023.48L132.181 1026.42C132.034 1026.18 131.827 1026 131.561 1025.88C131.307 1025.75 131.047 1025.68 130.781 1025.68C130.287 1025.68 129.861 1025.85 129.501 1026.2C129.154 1026.55 128.981 1026.97 128.981 1027.46ZM153.488 1036.16H149.288L149.268 1052H145.108L145.128 1036.16H141.948V1032H145.128L145.108 1025.72H149.268L149.288 1032H153.488V1036.16ZM171.109 1052H166.969L160.269 1032H164.349L169.069 1046.04L173.749 1032H177.949L182.629 1046.04L187.329 1032H191.409L184.729 1052H180.549L175.829 1037.86L171.109 1052ZM213.694 1032H217.854V1052H213.674L213.514 1049.1C212.928 1050.13 212.134 1050.95 211.134 1051.58C210.134 1052.21 208.954 1052.52 207.594 1052.52C206.128 1052.52 204.748 1052.25 203.454 1051.7C202.161 1051.14 201.021 1050.37 200.034 1049.38C199.061 1048.39 198.301 1047.26 197.754 1045.98C197.208 1044.69 196.934 1043.3 196.934 1041.82C196.934 1040.39 197.201 1039.05 197.734 1037.8C198.268 1036.53 199.008 1035.43 199.954 1034.48C200.901 1033.53 201.994 1032.79 203.234 1032.26C204.488 1031.71 205.828 1031.44 207.254 1031.44C208.708 1031.44 209.988 1031.77 211.094 1032.44C212.214 1033.09 213.141 1033.93 213.874 1034.96L213.694 1032ZM207.494 1048.5C208.668 1048.5 209.694 1048.21 210.574 1047.64C211.454 1047.05 212.134 1046.27 212.614 1045.28C213.108 1044.29 213.354 1043.2 213.354 1042C213.354 1040.79 213.108 1039.69 212.614 1038.7C212.121 1037.71 211.434 1036.93 210.554 1036.36C209.688 1035.77 208.668 1035.48 207.494 1035.48C206.334 1035.48 205.274 1035.77 204.314 1036.36C203.354 1036.95 202.594 1037.73 202.034 1038.72C201.474 1039.71 201.194 1040.8 201.194 1042C201.194 1043.21 201.481 1044.31 202.054 1045.3C202.641 1046.27 203.408 1047.05 204.354 1047.64C205.314 1048.21 206.361 1048.5 207.494 1048.5ZM226.245 1052V1032H230.405V1034.12C231.099 1033.29 231.952 1032.64 232.965 1032.16C233.979 1031.68 235.072 1031.44 236.245 1031.44C236.992 1031.44 237.732 1031.54 238.465 1031.74L236.805 1035.94C236.285 1035.74 235.765 1035.64 235.245 1035.64C234.365 1035.64 233.559 1035.86 232.825 1036.3C232.092 1036.73 231.505 1037.31 231.065 1038.04C230.625 1038.77 230.405 1039.59 230.405 1040.48V1052H226.245ZM253.039 1052.52C251.199 1052.52 249.519 1052.05 247.999 1051.1C246.492 1050.15 245.286 1048.89 244.379 1047.3C243.486 1045.7 243.039 1043.93 243.039 1042C243.039 1040.53 243.299 1039.17 243.819 1037.9C244.339 1036.62 245.052 1035.5 245.959 1034.54C246.879 1033.57 247.946 1032.81 249.159 1032.26C250.372 1031.71 251.666 1031.44 253.039 1031.44C254.572 1031.44 255.979 1031.76 257.259 1032.4C258.539 1033.03 259.632 1033.9 260.539 1035.02C261.446 1036.13 262.112 1037.41 262.539 1038.86C262.966 1040.3 263.092 1041.83 262.919 1043.46H247.499C247.672 1044.38 248.006 1045.21 248.499 1045.96C249.006 1046.69 249.646 1047.27 250.419 1047.7C251.206 1048.13 252.079 1048.35 253.039 1048.36C254.052 1048.36 254.972 1048.11 255.799 1047.6C256.639 1047.09 257.326 1046.39 257.859 1045.5L262.079 1046.48C261.279 1048.25 260.072 1049.71 258.459 1050.84C256.846 1051.96 255.039 1052.52 253.039 1052.52ZM247.359 1040.28H258.719C258.586 1039.32 258.246 1038.45 257.699 1037.68C257.166 1036.89 256.492 1036.27 255.679 1035.82C254.879 1035.35 253.999 1035.12 253.039 1035.12C252.092 1035.12 251.212 1035.35 250.399 1035.8C249.599 1036.25 248.932 1036.87 248.399 1037.66C247.879 1038.43 247.532 1039.31 247.359 1040.28ZM284.992 1052V1024H302.372V1028.16H289.152V1034.92H299.792V1039.08H289.152V1047.84H302.372V1052H284.992ZM329.189 1039.46V1052H325.029V1040.48C325.029 1039.59 324.809 1038.77 324.369 1038.04C323.942 1037.31 323.362 1036.73 322.629 1036.3C321.909 1035.86 321.096 1035.64 320.189 1035.64C319.309 1035.64 318.502 1035.86 317.769 1036.3C317.036 1036.73 316.449 1037.31 316.009 1038.04C315.569 1038.77 315.349 1039.59 315.349 1040.48V1052H311.189V1032H315.349V1034.12C316.042 1033.29 316.896 1032.64 317.909 1032.16C318.922 1031.68 320.016 1031.44 321.189 1031.44C322.669 1031.44 324.016 1031.8 325.229 1032.52C326.442 1033.24 327.402 1034.21 328.109 1035.42C328.829 1036.63 329.189 1037.98 329.189 1039.46ZM352.411 1032H356.571V1052.52C356.571 1053.89 356.277 1055.16 355.691 1056.32C355.117 1057.48 354.337 1058.48 353.351 1059.32C352.364 1060.17 351.231 1060.83 349.951 1061.3C348.684 1061.77 347.357 1062 345.971 1062C344.571 1062 343.224 1061.7 341.931 1061.1C340.637 1060.51 339.497 1059.71 338.511 1058.7C337.537 1057.69 336.811 1056.54 336.331 1055.26L340.151 1053.54C340.417 1054.37 340.844 1055.1 341.431 1055.74C342.031 1056.38 342.724 1056.89 343.511 1057.26C344.311 1057.63 345.131 1057.82 345.971 1057.82C346.797 1057.82 347.591 1057.69 348.351 1057.42C349.124 1057.17 349.811 1056.81 350.411 1056.34C351.024 1055.87 351.511 1055.31 351.871 1054.66C352.231 1054.01 352.411 1053.29 352.411 1052.52V1049.14C351.757 1050.15 350.917 1050.97 349.891 1051.6C348.864 1052.21 347.671 1052.52 346.311 1052.52C344.897 1052.52 343.564 1052.25 342.311 1051.7C341.057 1051.15 339.957 1050.4 339.011 1049.44C338.064 1048.47 337.324 1047.35 336.791 1046.08C336.257 1044.81 335.991 1043.45 335.991 1042C335.991 1040.55 336.257 1039.19 336.791 1037.92C337.324 1036.64 338.064 1035.52 339.011 1034.56C339.957 1033.59 341.057 1032.83 342.311 1032.28C343.564 1031.73 344.897 1031.46 346.311 1031.46C347.671 1031.46 348.864 1031.77 349.891 1032.4C350.917 1033.01 351.757 1033.83 352.411 1034.86V1032ZM346.351 1048.5C347.511 1048.5 348.524 1048.21 349.391 1047.62C350.257 1047.02 350.931 1046.23 351.411 1045.24C351.891 1044.25 352.131 1043.17 352.131 1042C352.131 1040.8 351.884 1039.71 351.391 1038.74C350.911 1037.75 350.237 1036.97 349.371 1036.38C348.504 1035.78 347.497 1035.48 346.351 1035.48C345.231 1035.48 344.204 1035.77 343.271 1036.36C342.351 1036.95 341.617 1037.73 341.071 1038.72C340.524 1039.71 340.251 1040.8 340.251 1042C340.251 1043.2 340.524 1044.29 341.071 1045.28C341.631 1046.27 342.371 1047.05 343.291 1047.64C344.224 1048.21 345.244 1048.5 346.351 1048.5ZM365.419 1032H369.579V1052H365.419V1032ZM367.539 1029.1C366.899 1029.1 366.365 1028.89 365.939 1028.48C365.512 1028.07 365.299 1027.55 365.299 1026.92C365.299 1026.31 365.512 1025.79 365.939 1025.38C366.365 1024.95 366.892 1024.74 367.519 1024.74C368.132 1024.74 368.652 1024.95 369.079 1025.38C369.505 1025.79 369.719 1026.31 369.719 1026.92C369.719 1027.55 369.505 1028.07 369.079 1028.48C368.665 1028.89 368.152 1029.1 367.539 1029.1ZM396.608 1039.46V1052H392.448V1040.48C392.448 1039.59 392.228 1038.77 391.788 1038.04C391.361 1037.31 390.781 1036.73 390.048 1036.3C389.328 1035.86 388.514 1035.64 387.608 1035.64C386.728 1035.64 385.921 1035.86 385.188 1036.3C384.454 1036.73 383.868 1037.31 383.428 1038.04C382.988 1038.77 382.768 1039.59 382.768 1040.48V1052H378.608V1032H382.768V1034.12C383.461 1033.29 384.314 1032.64 385.328 1032.16C386.341 1031.68 387.434 1031.44 388.608 1031.44C390.088 1031.44 391.434 1031.8 392.648 1032.52C393.861 1033.24 394.821 1034.21 395.528 1035.42C396.248 1036.63 396.608 1037.98 396.608 1039.46ZM413.409 1052.52C411.569 1052.52 409.889 1052.05 408.369 1051.1C406.863 1050.15 405.656 1048.89 404.749 1047.3C403.856 1045.7 403.409 1043.93 403.409 1042C403.409 1040.53 403.669 1039.17 404.189 1037.9C404.709 1036.62 405.423 1035.5 406.329 1034.54C407.249 1033.57 408.316 1032.81 409.529 1032.26C410.743 1031.71 412.036 1031.44 413.409 1031.44C414.943 1031.44 416.349 1031.76 417.629 1032.4C418.909 1033.03 420.003 1033.9 420.909 1035.02C421.816 1036.13 422.483 1037.41 422.909 1038.86C423.336 1040.3 423.463 1041.83 423.289 1043.46H407.869C408.043 1044.38 408.376 1045.21 408.869 1045.96C409.376 1046.69 410.016 1047.27 410.789 1047.7C411.576 1048.13 412.449 1048.35 413.409 1048.36C414.423 1048.36 415.343 1048.11 416.169 1047.6C417.009 1047.09 417.696 1046.39 418.229 1045.5L422.449 1046.48C421.649 1048.25 420.443 1049.71 418.829 1050.84C417.216 1051.96 415.409 1052.52 413.409 1052.52ZM407.729 1040.28H419.089C418.956 1039.32 418.616 1038.45 418.069 1037.68C417.536 1036.89 416.863 1036.27 416.049 1035.82C415.249 1035.35 414.369 1035.12 413.409 1035.12C412.463 1035.12 411.583 1035.35 410.769 1035.8C409.969 1036.25 409.303 1036.87 408.769 1037.66C408.249 1038.43 407.903 1039.31 407.729 1040.28ZM439.763 1052.52C437.923 1052.52 436.243 1052.05 434.723 1051.1C433.216 1050.15 432.009 1048.89 431.103 1047.3C430.209 1045.7 429.763 1043.93 429.763 1042C429.763 1040.53 430.023 1039.17 430.543 1037.9C431.063 1036.62 431.776 1035.5 432.683 1034.54C433.603 1033.57 434.669 1032.81 435.883 1032.26C437.096 1031.71 438.389 1031.44 439.763 1031.44C441.296 1031.44 442.703 1031.76 443.983 1032.4C445.263 1033.03 446.356 1033.9 447.263 1035.02C448.169 1036.13 448.836 1037.41 449.263 1038.86C449.689 1040.3 449.816 1041.83 449.643 1043.46H434.223C434.396 1044.38 434.729 1045.21 435.223 1045.96C435.729 1046.69 436.369 1047.27 437.143 1047.7C437.929 1048.13 438.803 1048.35 439.763 1048.36C440.776 1048.36 441.696 1048.11 442.523 1047.6C443.363 1047.09 444.049 1046.39 444.583 1045.5L448.803 1046.48C448.003 1048.25 446.796 1049.71 445.183 1050.84C443.569 1051.96 441.763 1052.52 439.763 1052.52ZM434.083 1040.28H445.443C445.309 1039.32 444.969 1038.45 444.423 1037.68C443.889 1036.89 443.216 1036.27 442.403 1035.82C441.603 1035.35 440.723 1035.12 439.763 1035.12C438.816 1035.12 437.936 1035.35 437.123 1035.8C436.323 1036.25 435.656 1036.87 435.123 1037.66C434.603 1038.43 434.256 1039.31 434.083 1040.28ZM457.355 1052V1032H461.515V1034.12C462.208 1033.29 463.061 1032.64 464.075 1032.16C465.088 1031.68 466.181 1031.44 467.355 1031.44C468.101 1031.44 468.841 1031.54 469.575 1031.74L467.915 1035.94C467.395 1035.74 466.875 1035.64 466.355 1035.64C465.475 1035.64 464.668 1035.86 463.935 1036.3C463.201 1036.73 462.615 1037.31 462.175 1038.04C461.735 1038.77 461.515 1039.59 461.515 1040.48V1052H457.355Z" fill="#2666E6"/>
<path d="M680.564 1366.43C678.644 1366.43 676.868 1366.1 675.236 1365.42C673.628 1364.75 672.212 1363.82 670.988 1362.62C669.764 1361.42 668.816 1360.02 668.144 1358.44C667.472 1356.83 667.136 1355.1 667.136 1353.26C667.136 1351.38 667.472 1349.66 668.144 1348.07C668.816 1346.49 669.752 1345.11 670.952 1343.93C672.152 1342.73 673.556 1341.81 675.164 1341.16C676.796 1340.49 678.572 1340.15 680.492 1340.15C682.388 1340.15 684.14 1340.49 685.748 1341.16C687.38 1341.81 688.796 1342.73 689.996 1343.93C691.22 1345.11 692.168 1346.5 692.84 1348.11C693.512 1349.69 693.848 1351.42 693.848 1353.29C693.848 1355.14 693.512 1356.87 692.84 1358.48C692.168 1360.06 691.232 1361.45 690.032 1362.65C688.832 1363.83 687.416 1364.75 685.784 1365.42C684.176 1366.1 682.436 1366.43 680.564 1366.43ZM680.492 1361.28C682.004 1361.28 683.324 1360.95 684.452 1360.28C685.604 1359.6 686.492 1358.67 687.116 1357.47C687.74 1356.24 688.052 1354.84 688.052 1353.26C688.052 1352.06 687.872 1350.98 687.512 1350.02C687.152 1349.03 686.636 1348.19 685.964 1347.5C685.292 1346.78 684.488 1346.24 683.552 1345.88C682.64 1345.49 681.62 1345.3 680.492 1345.3C678.98 1345.3 677.648 1345.64 676.496 1346.31C675.368 1346.96 674.492 1347.88 673.868 1349.08C673.244 1350.26 672.932 1351.65 672.932 1353.26C672.932 1354.46 673.112 1355.55 673.472 1356.53C673.832 1357.52 674.336 1358.37 674.984 1359.09C675.656 1359.78 676.46 1360.32 677.396 1360.71C678.332 1361.09 679.364 1361.28 680.492 1361.28ZM707.012 1366.36C705.836 1366.36 704.756 1366.13 703.772 1365.68C702.788 1365.22 701.984 1364.6 701.36 1363.8C700.736 1362.99 700.376 1362.06 700.28 1361.03V1353.65C700.376 1352.62 700.736 1351.68 701.36 1350.84C701.984 1350 702.788 1349.34 703.772 1348.86C704.756 1348.38 705.836 1348.14 707.012 1348.14C708.668 1348.14 710.132 1348.54 711.404 1349.33C712.7 1350.12 713.708 1351.2 714.428 1352.57C715.172 1353.94 715.544 1355.5 715.544 1357.25C715.544 1359 715.172 1360.56 714.428 1361.93C713.708 1363.3 712.7 1364.38 711.404 1365.17C710.132 1365.96 708.668 1366.36 707.012 1366.36ZM696.932 1373.38V1348.5H702.44V1353L701.54 1357.25L702.368 1361.5V1373.38H696.932ZM706.004 1361.39C706.796 1361.39 707.48 1361.21 708.056 1360.85C708.656 1360.49 709.124 1360 709.46 1359.38C709.796 1358.75 709.964 1358.04 709.964 1357.25C709.964 1356.44 709.796 1355.72 709.46 1355.09C709.124 1354.47 708.656 1353.99 708.056 1353.65C707.48 1353.29 706.808 1353.11 706.04 1353.11C705.272 1353.11 704.588 1353.29 703.988 1353.65C703.412 1353.99 702.956 1354.47 702.62 1355.09C702.284 1355.72 702.116 1356.44 702.116 1357.25C702.116 1358.04 702.272 1358.75 702.584 1359.38C702.92 1360 703.388 1360.49 703.988 1360.85C704.588 1361.21 705.26 1361.39 706.004 1361.39ZM726.982 1366.4C725.086 1366.4 723.394 1366.01 721.906 1365.24C720.442 1364.45 719.29 1363.36 718.45 1361.97C717.61 1360.58 717.19 1359 717.19 1357.25C717.19 1355.5 717.598 1353.94 718.414 1352.57C719.254 1351.18 720.382 1350.09 721.798 1349.3C723.214 1348.5 724.81 1348.11 726.586 1348.11C728.314 1348.11 729.838 1348.48 731.158 1349.22C732.478 1349.97 733.51 1351 734.254 1352.32C735.022 1353.64 735.406 1355.15 735.406 1356.86C735.406 1357.17 735.382 1357.5 735.334 1357.86C735.31 1358.2 735.25 1358.6 735.154 1359.05L720.07 1359.09V1355.31L732.814 1355.27L730.438 1356.86C730.414 1355.85 730.258 1355.02 729.97 1354.37C729.682 1353.7 729.25 1353.2 728.674 1352.86C728.122 1352.5 727.438 1352.32 726.622 1352.32C725.758 1352.32 725.002 1352.52 724.354 1352.93C723.73 1353.32 723.238 1353.87 722.878 1354.59C722.542 1355.31 722.374 1356.18 722.374 1357.22C722.374 1358.25 722.554 1359.14 722.914 1359.88C723.298 1360.6 723.826 1361.16 724.498 1361.57C725.194 1361.96 726.01 1362.15 726.946 1362.15C727.81 1362.15 728.59 1362 729.286 1361.72C729.982 1361.4 730.594 1360.95 731.122 1360.35L734.146 1363.37C733.282 1364.38 732.238 1365.14 731.014 1365.64C729.79 1366.14 728.446 1366.4 726.982 1366.4ZM749.621 1366V1356.03C749.621 1355.12 749.333 1354.38 748.757 1353.83C748.205 1353.26 747.497 1352.97 746.633 1352.97C746.033 1352.97 745.505 1353.1 745.049 1353.36C744.593 1353.6 744.233 1353.96 743.969 1354.44C743.705 1354.9 743.573 1355.43 743.573 1356.03L741.449 1354.98C741.449 1353.62 741.749 1352.42 742.349 1351.38C742.949 1350.35 743.777 1349.56 744.833 1349.01C745.913 1348.43 747.125 1348.14 748.469 1348.14C749.765 1348.14 750.905 1348.46 751.889 1349.08C752.897 1349.68 753.689 1350.48 754.265 1351.49C754.841 1352.5 755.129 1353.6 755.129 1354.8V1366H749.621ZM738.065 1366V1348.5H743.573V1366H738.065ZM771.692 1366V1340.94H777.344V1366H771.692ZM763.736 1345.52V1340.58H785.3V1345.52H763.736ZM792.192 1366.4C790.392 1366.4 788.76 1366 787.296 1365.21C785.856 1364.39 784.716 1363.29 783.876 1361.9C783.036 1360.5 782.616 1358.94 782.616 1357.22C782.616 1355.49 783.036 1353.94 783.876 1352.57C784.716 1351.2 785.856 1350.12 787.296 1349.33C788.736 1348.52 790.368 1348.11 792.192 1348.11C794.016 1348.11 795.648 1348.5 797.088 1349.3C798.528 1350.09 799.668 1351.18 800.508 1352.57C801.348 1353.94 801.768 1355.49 801.768 1357.22C801.768 1358.94 801.348 1360.5 800.508 1361.9C799.668 1363.29 798.528 1364.39 797.088 1365.21C795.648 1366 794.016 1366.4 792.192 1366.4ZM792.192 1361.39C792.984 1361.39 793.68 1361.22 794.28 1360.89C794.88 1360.53 795.336 1360.04 795.648 1359.41C795.984 1358.76 796.152 1358.03 796.152 1357.22C796.152 1356.4 795.984 1355.69 795.648 1355.09C795.312 1354.47 794.844 1353.99 794.244 1353.65C793.668 1353.29 792.984 1353.11 792.192 1353.11C791.424 1353.11 790.74 1353.29 790.14 1353.65C789.54 1353.99 789.072 1354.47 788.736 1355.09C788.4 1355.72 788.232 1356.44 788.232 1357.25C788.232 1358.04 788.4 1358.76 788.736 1359.41C789.072 1360.04 789.54 1360.53 790.14 1360.89C790.74 1361.22 791.424 1361.39 792.192 1361.39ZM818.206 1366L810.034 1340.58H815.65L821.626 1360.13H819.43L825.262 1340.58H829.69L835.522 1360.13H833.362L839.302 1340.58H844.882L836.71 1366H832.282L826.414 1346.45H828.502L822.634 1366H818.206ZM853.61 1366.4C851.81 1366.4 850.178 1366 848.714 1365.21C847.274 1364.39 846.134 1363.29 845.294 1361.9C844.454 1360.5 844.034 1358.94 844.034 1357.22C844.034 1355.49 844.454 1353.94 845.294 1352.57C846.134 1351.2 847.274 1350.12 848.714 1349.33C850.154 1348.52 851.786 1348.11 853.61 1348.11C855.434 1348.11 857.066 1348.5 858.506 1349.3C859.946 1350.09 861.086 1351.18 861.926 1352.57C862.766 1353.94 863.186 1355.49 863.186 1357.22C863.186 1358.94 862.766 1360.5 861.926 1361.9C861.086 1363.29 859.946 1364.39 858.506 1365.21C857.066 1366 855.434 1366.4 853.61 1366.4ZM853.61 1361.39C854.402 1361.39 855.098 1361.22 855.698 1360.89C856.298 1360.53 856.754 1360.04 857.066 1359.41C857.402 1358.76 857.57 1358.03 857.57 1357.22C857.57 1356.4 857.402 1355.69 857.066 1355.09C856.73 1354.47 856.262 1353.99 855.662 1353.65C855.086 1353.29 854.402 1353.11 853.61 1353.11C852.842 1353.11 852.158 1353.29 851.558 1353.65C850.958 1353.99 850.49 1354.47 850.154 1355.09C849.818 1355.72 849.65 1356.44 849.65 1357.25C849.65 1358.04 849.818 1358.76 850.154 1359.41C850.49 1360.04 850.958 1360.53 851.558 1360.89C852.158 1361.22 852.842 1361.39 853.61 1361.39ZM865.928 1366V1348.5H871.436V1366H865.928ZM871.436 1356.39L869.132 1354.59C869.588 1352.55 870.356 1350.96 871.436 1349.84C872.516 1348.71 874.016 1348.14 875.936 1348.14C876.776 1348.14 877.508 1348.28 878.132 1348.54C878.78 1348.78 879.344 1349.16 879.824 1349.69L876.548 1353.83C876.308 1353.57 876.008 1353.36 875.648 1353.22C875.288 1353.08 874.88 1353 874.424 1353C873.512 1353 872.78 1353.29 872.228 1353.87C871.7 1354.42 871.436 1355.26 871.436 1356.39ZM892.488 1366L886.368 1356.93L892.452 1348.5H898.608L891.264 1357.97L891.444 1355.7L898.968 1366H892.488ZM881.292 1366V1339.86H886.8V1366H881.292Z" fill="#2666E6"/>
<defs>
<filter id="filter0_n_1_28" x="66" y="65" width="833" height="766" filterUnits="userSpaceOnUse" color-interpolation-filters="sRGB">
<feFlood flood-opacity="0" result="BackgroundImageFix"/>
<feBlend mode="normal" in="SourceGraphic" in2="BackgroundImageFix" result="shape"/>
<feTurbulence type="fractalNoise" baseFrequency="0.71428573131561279 0.71428573131561279" stitchTiles="stitch" numOctaves="3" result="noise" seed="2065" />
<feColorMatrix in="noise" type="luminanceToAlpha" result="alphaNoise" />
<feComponentTransfer in="alphaNoise" result="coloredNoise1">
<feFuncA type="discrete" tableValues="0 0 0 1 1 1 1 1 1 1 1 1 1 1 1 1 1 1 1 1 1 1 1 1 1 1 1 1 1 1 1 1 1 1 1 1 1 1 1 1 1 1 1 1 1 1 1 0 0 0 0 0 0 0 0 0 0 0 0 0 0 0 0 0 0 0 0 0 0 0 0 0 0 0 0 0 0 0 0 0 0 0 0 0 0 0 0 0 0 0 0 0 0 0 0 0 0 0 0 0 "/>
</feComponentTransfer>
<feComposite operator="in" in2="shape" in="coloredNoise1" result="noise1Clipped" />
<feFlood flood-color="rgba(248, 250, 252, 0.25)" result="color1Flood" />
<feComposite operator="in" in2="noise1Clipped" in="color1Flood" result="color1" />
<feMerge result="effect1_noise_1_28">
<feMergeNode in="shape" />
<feMergeNode in="color1" />
</feMerge>
</filter>
<linearGradient id="paint0_linear_1_28" x1="899" y1="65" x2="66" y2="831" gradientUnits="userSpaceOnUse">
<stop stop-color="#2C4EC9"/>
<stop offset="0.245" stop-color="#094ECE"/>
<stop offset="0.495" stop-color="#206ACF"/>
<stop offset="0.765" stop-color="#6D9ED9"/>
<stop offset="1" stop-color="#ABCAE7"/>
</linearGradient>
<clipPath id="clip0_1_28">
<rect x="252" y="1324" width="48" height="56" fill="white"/>
</clipPath>
</defs>
</svg>
