<svg width="972" height="1453" viewBox="0 0 972 1453" fill="none" xmlns="http://www.w3.org/2000/svg">
<g filter="url(#filter0_d_1_28)">
<rect x="5" y="1" width="962" height="1443" rx="24" fill="#F8FAFC" shape-rendering="crispEdges"/>
<rect x="69" y="1323" width="363" height="60" rx="12" stroke="#2666E6" stroke-width="4"/>
<path d="M99.676 1366.5V1341.44H105.328V1366.5H99.676ZM91.72 1346.02V1341.08H113.284V1346.02H91.72ZM119.061 1366.86C117.453 1366.86 116.013 1366.46 114.741 1365.67C113.493 1364.88 112.497 1363.8 111.753 1362.43C111.033 1361.06 110.673 1359.5 110.673 1357.75C110.673 1356 111.033 1354.44 111.753 1353.07C112.497 1351.7 113.493 1350.62 114.741 1349.83C116.013 1349.04 117.453 1348.64 119.061 1348.64C120.237 1348.64 121.293 1348.87 122.229 1349.33C123.189 1349.78 123.969 1350.42 124.569 1351.24C125.169 1352.03 125.505 1352.94 125.577 1353.97V1361.53C125.505 1362.56 125.169 1363.49 124.569 1364.3C123.993 1365.1 123.225 1365.72 122.265 1366.18C121.305 1366.63 120.237 1366.86 119.061 1366.86ZM120.177 1361.89C121.353 1361.89 122.301 1361.51 123.021 1360.74C123.741 1359.95 124.101 1358.95 124.101 1357.75C124.101 1356.94 123.933 1356.22 123.597 1355.59C123.285 1354.97 122.829 1354.49 122.229 1354.15C121.653 1353.79 120.981 1353.61 120.213 1353.61C119.445 1353.61 118.761 1353.79 118.161 1354.15C117.585 1354.49 117.117 1354.97 116.757 1355.59C116.421 1356.22 116.253 1356.94 116.253 1357.75C116.253 1358.54 116.421 1359.25 116.757 1359.88C117.093 1360.5 117.561 1360.99 118.161 1361.35C118.761 1361.71 119.433 1361.89 120.177 1361.89ZM123.885 1366.5V1361.78L124.713 1357.54L123.885 1353.29V1349H129.285V1366.5H123.885ZM133.163 1366.5V1349H138.671V1366.5H133.163ZM144.359 1366.5V1356.28C144.359 1355.39 144.083 1354.7 143.531 1354.22C143.003 1353.72 142.343 1353.47 141.551 1353.47C140.999 1353.47 140.507 1353.59 140.075 1353.83C139.643 1354.04 139.295 1354.36 139.031 1354.76C138.791 1355.17 138.671 1355.68 138.671 1356.28L136.547 1355.34C136.547 1353.95 136.847 1352.76 137.447 1351.78C138.047 1350.77 138.863 1350 139.895 1349.47C140.927 1348.92 142.091 1348.64 143.387 1348.64C144.611 1348.64 145.703 1348.92 146.663 1349.47C147.647 1350.02 148.427 1350.79 149.003 1351.78C149.579 1352.76 149.867 1353.94 149.867 1355.3V1366.5H144.359ZM155.555 1366.5V1356.28C155.555 1355.39 155.279 1354.7 154.727 1354.22C154.199 1353.72 153.539 1353.47 152.747 1353.47C152.195 1353.47 151.703 1353.59 151.271 1353.83C150.839 1354.04 150.491 1354.36 150.227 1354.76C149.987 1355.17 149.867 1355.68 149.867 1356.28L146.699 1355.84C146.747 1354.36 147.095 1353.08 147.743 1352.03C148.415 1350.95 149.291 1350.12 150.371 1349.54C151.475 1348.94 152.711 1348.64 154.079 1348.64C155.423 1348.64 156.611 1348.93 157.643 1349.51C158.699 1350.06 159.527 1350.86 160.127 1351.92C160.751 1352.95 161.063 1354.2 161.063 1355.66V1366.5H155.555ZM174.672 1366.86C173.496 1366.86 172.416 1366.63 171.432 1366.18C170.448 1365.72 169.644 1365.1 169.02 1364.3C168.396 1363.49 168.036 1362.56 167.94 1361.53V1354.15C168.036 1353.12 168.396 1352.18 169.02 1351.34C169.644 1350.5 170.448 1349.84 171.432 1349.36C172.416 1348.88 173.496 1348.64 174.672 1348.64C176.328 1348.64 177.792 1349.04 179.064 1349.83C180.36 1350.62 181.368 1351.7 182.088 1353.07C182.832 1354.44 183.204 1356 183.204 1357.75C183.204 1359.5 182.832 1361.06 182.088 1362.43C181.368 1363.8 180.36 1364.88 179.064 1365.67C177.792 1366.46 176.328 1366.86 174.672 1366.86ZM164.592 1373.88V1349H170.1V1353.5L169.2 1357.75L170.028 1362V1373.88H164.592ZM173.664 1361.89C174.456 1361.89 175.14 1361.71 175.716 1361.35C176.316 1360.99 176.784 1360.5 177.12 1359.88C177.456 1359.25 177.624 1358.54 177.624 1357.75C177.624 1356.94 177.456 1356.22 177.12 1355.59C176.784 1354.97 176.316 1354.49 175.716 1354.15C175.14 1353.79 174.468 1353.61 173.7 1353.61C172.932 1353.61 172.248 1353.79 171.648 1354.15C171.072 1354.49 170.616 1354.97 170.28 1355.59C169.944 1356.22 169.776 1356.94 169.776 1357.75C169.776 1358.54 169.932 1359.25 170.244 1359.88C170.58 1360.5 171.048 1360.99 171.648 1361.35C172.248 1361.71 172.92 1361.89 173.664 1361.89ZM194.643 1366.9C192.747 1366.9 191.055 1366.51 189.567 1365.74C188.103 1364.95 186.951 1363.86 186.111 1362.47C185.271 1361.08 184.851 1359.5 184.851 1357.75C184.851 1356 185.259 1354.44 186.075 1353.07C186.915 1351.68 188.043 1350.59 189.459 1349.8C190.875 1349 192.471 1348.61 194.247 1348.61C195.975 1348.61 197.499 1348.98 198.819 1349.72C200.139 1350.47 201.171 1351.5 201.915 1352.82C202.683 1354.14 203.067 1355.65 203.067 1357.36C203.067 1357.67 203.043 1358 202.995 1358.36C202.971 1358.7 202.911 1359.1 202.815 1359.55L187.731 1359.59V1355.81L200.475 1355.77L198.099 1357.36C198.075 1356.35 197.919 1355.52 197.631 1354.87C197.343 1354.2 196.911 1353.7 196.335 1353.36C195.783 1353 195.099 1352.82 194.283 1352.82C193.419 1352.82 192.663 1353.02 192.015 1353.43C191.391 1353.82 190.899 1354.37 190.539 1355.09C190.203 1355.81 190.035 1356.68 190.035 1357.72C190.035 1358.75 190.215 1359.64 190.575 1360.38C190.959 1361.1 191.487 1361.66 192.159 1362.07C192.855 1362.46 193.671 1362.65 194.607 1362.65C195.471 1362.65 196.251 1362.5 196.947 1362.22C197.643 1361.9 198.255 1361.45 198.783 1360.85L201.807 1363.87C200.943 1364.88 199.899 1365.64 198.675 1366.14C197.451 1366.64 196.107 1366.9 194.643 1366.9ZM205.725 1366.5V1349H211.233V1366.5H205.725ZM211.233 1356.89L208.929 1355.09C209.385 1353.05 210.153 1351.46 211.233 1350.34C212.313 1349.21 213.813 1348.64 215.733 1348.64C216.573 1348.64 217.305 1348.78 217.929 1349.04C218.577 1349.28 219.141 1349.66 219.621 1350.19L216.345 1354.33C216.105 1354.07 215.805 1353.86 215.445 1353.72C215.085 1353.58 214.677 1353.5 214.221 1353.5C213.309 1353.5 212.577 1353.79 212.025 1354.37C211.497 1354.92 211.233 1355.76 211.233 1356.89ZM229.236 1366.9C227.34 1366.9 225.648 1366.51 224.16 1365.74C222.696 1364.95 221.544 1363.86 220.704 1362.47C219.864 1361.08 219.444 1359.5 219.444 1357.75C219.444 1356 219.852 1354.44 220.668 1353.07C221.508 1351.68 222.636 1350.59 224.052 1349.8C225.468 1349 227.064 1348.61 228.84 1348.61C230.568 1348.61 232.092 1348.98 233.412 1349.72C234.732 1350.47 235.764 1351.5 236.508 1352.82C237.276 1354.14 237.66 1355.65 237.66 1357.36C237.66 1357.67 237.636 1358 237.588 1358.36C237.564 1358.7 237.504 1359.1 237.408 1359.55L222.324 1359.59V1355.81L235.068 1355.77L232.692 1357.36C232.668 1356.35 232.512 1355.52 232.224 1354.87C231.936 1354.2 231.504 1353.7 230.928 1353.36C230.376 1353 229.692 1352.82 228.876 1352.82C228.012 1352.82 227.256 1353.02 226.608 1353.43C225.984 1353.82 225.492 1354.37 225.132 1355.09C224.796 1355.81 224.628 1356.68 224.628 1357.72C224.628 1358.75 224.808 1359.64 225.168 1360.38C225.552 1361.1 226.08 1361.66 226.752 1362.07C227.448 1362.46 228.264 1362.65 229.2 1362.65C230.064 1362.65 230.844 1362.5 231.54 1362.22C232.236 1361.9 232.848 1361.45 233.376 1360.85L236.4 1363.87C235.536 1364.88 234.492 1365.64 233.268 1366.14C232.044 1366.64 230.7 1366.9 229.236 1366.9Z" fill="#2666E6"/>
<g clip-path="url(#clip0_1_28)">
<rect x="257" y="1325" width="48" height="56" fill="white"/>
<line y1="-1" x2="80" y2="-1" transform="matrix(0.6 -0.8 0.714359 0.69978 257 1385)" stroke="#2666E6" stroke-width="2"/>
<line y1="-1" x2="80" y2="-1" transform="matrix(0.6 -0.8 0.714359 0.69978 249 1385)" stroke="#2666E6" stroke-width="2"/>
<line y1="-1" x2="80" y2="-1" transform="matrix(0.6 -0.8 0.714359 0.69978 241 1385)" stroke="#2666E6" stroke-width="2"/>
<line y1="-1" x2="80" y2="-1" transform="matrix(0.6 -0.8 0.714359 0.69978 233 1385)" stroke="#2666E6" stroke-width="2"/>
<line y1="-1" x2="80" y2="-1" transform="matrix(0.6 -0.8 0.714359 0.69978 225 1385)" stroke="#2666E6" stroke-width="2"/>
<line y1="-1" x2="80" y2="-1" transform="matrix(0.6 -0.8 0.714359 0.69978 217 1385)" stroke="#2666E6" stroke-width="2"/>
<line y1="-1" x2="80" y2="-1" transform="matrix(0.6 -0.8 0.714359 0.69978 265 1385)" stroke="#2666E6" stroke-width="2"/>
<line y1="-1" x2="80" y2="-1" transform="matrix(0.6 -0.8 0.714359 0.69978 273 1385)" stroke="#2666E6" stroke-width="2"/>
<line y1="-1" x2="80" y2="-1" transform="matrix(0.6 -0.8 0.714359 0.69978 281 1385)" stroke="#2666E6" stroke-width="2"/>
<line y1="-1" x2="80" y2="-1" transform="matrix(0.6 -0.8 0.714359 0.69978 289 1385)" stroke="#2666E6" stroke-width="2"/>
<line y1="-1" x2="80" y2="-1" transform="matrix(0.6 -0.8 0.714359 0.69978 297 1385)" stroke="#2666E6" stroke-width="2"/>
<line y1="-1" x2="80" y2="-1" transform="matrix(0.6 -0.8 0.714359 0.69978 305 1385)" stroke="#2666E6" stroke-width="2"/>
</g>
<rect x="257" y="1325" width="48" height="56" stroke="#2666E6" stroke-width="4"/>
<path d="M323.864 1363.33L333.62 1353.25C334.22 1352.65 334.7 1352.1 335.06 1351.6C335.42 1351.09 335.684 1350.62 335.852 1350.19C336.02 1349.74 336.104 1349.28 336.104 1348.82C336.104 1347.84 335.78 1347.07 335.132 1346.52C334.508 1345.94 333.68 1345.66 332.648 1345.66C331.64 1345.66 330.728 1345.93 329.912 1346.48C329.12 1347.01 328.352 1347.89 327.608 1349.11L323.828 1345.84C324.836 1344.13 326.12 1342.85 327.68 1341.98C329.24 1341.12 331.028 1340.69 333.044 1340.69C334.796 1340.69 336.308 1341.01 337.58 1341.66C338.876 1342.31 339.872 1343.23 340.568 1344.43C341.288 1345.63 341.648 1347.04 341.648 1348.64C341.648 1349.65 341.516 1350.59 341.252 1351.45C340.988 1352.29 340.556 1353.13 339.956 1353.97C339.38 1354.79 338.6 1355.69 337.616 1356.67L330.848 1363.4L323.864 1363.33ZM323.864 1366.5V1363.33L328.652 1361.68H342.152V1366.5H323.864ZM361.14 1366.5L350.844 1353.25L360.816 1341.08H367.8L356.568 1354.3V1351.99L368.16 1366.5H361.14ZM345.768 1366.5V1341.08H351.42V1366.5H345.768ZM369.567 1363.33L379.323 1353.25C379.923 1352.65 380.403 1352.1 380.763 1351.6C381.123 1351.09 381.387 1350.62 381.555 1350.19C381.723 1349.74 381.807 1349.28 381.807 1348.82C381.807 1347.84 381.483 1347.07 380.835 1346.52C380.211 1345.94 379.383 1345.66 378.351 1345.66C377.343 1345.66 376.431 1345.93 375.615 1346.48C374.823 1347.01 374.055 1347.89 373.311 1349.11L369.531 1345.84C370.539 1344.13 371.823 1342.85 373.383 1341.98C374.943 1341.12 376.731 1340.69 378.747 1340.69C380.499 1340.69 382.011 1341.01 383.283 1341.66C384.579 1342.31 385.575 1343.23 386.271 1344.43C386.991 1345.63 387.351 1347.04 387.351 1348.64C387.351 1349.65 387.219 1350.59 386.955 1351.45C386.691 1352.29 386.259 1353.13 385.659 1353.97C385.083 1354.79 384.303 1355.69 383.319 1356.67L376.551 1363.4L369.567 1363.33ZM369.567 1366.5V1363.33L374.355 1361.68H387.855V1366.5H369.567ZM399.355 1366.9C397.579 1366.9 395.971 1366.5 394.531 1365.71C393.115 1364.92 391.987 1363.86 391.147 1362.54C390.331 1361.2 389.923 1359.7 389.923 1358.04C389.923 1355.88 390.679 1353.7 392.191 1351.49L399.355 1341.08H405.727L397.771 1352.17L395.647 1352.35C395.983 1351.78 396.331 1351.28 396.691 1350.88C397.075 1350.44 397.555 1350.12 398.131 1349.9C398.707 1349.66 399.439 1349.54 400.327 1349.54C401.911 1349.54 403.327 1349.92 404.575 1350.66C405.847 1351.38 406.867 1352.38 407.635 1353.65C408.403 1354.9 408.787 1356.34 408.787 1357.97C408.787 1359.62 408.367 1361.14 407.527 1362.5C406.687 1363.85 405.559 1364.92 404.143 1365.71C402.727 1366.5 401.131 1366.9 399.355 1366.9ZM399.355 1361.96C400.099 1361.96 400.771 1361.78 401.371 1361.42C401.971 1361.06 402.439 1360.57 402.775 1359.95C403.111 1359.32 403.279 1358.63 403.279 1357.86C403.279 1357.07 403.111 1356.37 402.775 1355.77C402.439 1355.15 401.971 1354.67 401.371 1354.33C400.771 1353.97 400.099 1353.79 399.355 1353.79C398.587 1353.79 397.903 1353.97 397.303 1354.33C396.727 1354.67 396.271 1355.15 395.935 1355.77C395.599 1356.37 395.431 1357.07 395.431 1357.86C395.431 1358.63 395.599 1359.32 395.935 1359.95C396.271 1360.57 396.727 1361.06 397.303 1361.42C397.903 1361.78 398.587 1361.96 399.355 1361.96Z" fill="#2666E6"/>
<g filter="url(#filter1_n_1_28)">
<path d="M71 516C71 267.472 272.472 66 521 66H894C899.523 66 904 70.4772 904 76V382C904 630.528 702.528 832 454 832H81C75.4771 832 71 827.523 71 822V516Z" fill="url(#paint0_linear_1_28)"/>
</g>
<path d="M117.92 923.4V935.544H99.792V985H87.648V935.544H69.52V923.4H117.92ZM167.586 957.016V985H155.442V960.36C155.442 958.805 155.06 957.412 154.298 956.18C153.564 954.919 152.567 953.921 151.306 953.188C150.074 952.455 148.695 952.088 147.17 952.088C145.644 952.088 144.251 952.455 142.99 953.188C141.728 953.921 140.731 954.919 139.998 956.18C139.264 957.412 138.898 958.805 138.898 960.36V985H126.754L126.71 919H138.854L138.898 944.256C140.364 942.848 142.08 941.748 144.046 940.956C146.04 940.164 148.138 939.768 150.338 939.768C153.535 939.768 156.424 940.545 159.006 942.1C161.616 943.655 163.699 945.737 165.254 948.348C166.808 950.929 167.586 953.819 167.586 957.016ZM176.382 941H188.526V985H176.382V941ZM182.542 935.94C180.782 935.94 179.3 935.353 178.098 934.18C176.895 933.007 176.294 931.555 176.294 929.824C176.294 928.093 176.895 926.641 178.098 925.468C179.3 924.295 180.767 923.708 182.498 923.708C184.228 923.708 185.68 924.295 186.854 925.468C188.056 926.641 188.658 928.093 188.658 929.824C188.658 931.555 188.071 933.007 186.898 934.18C185.754 935.353 184.302 935.94 182.542 935.94ZM239.515 957.016V985H227.371V960.36C227.371 958.805 226.99 957.412 226.227 956.18C225.494 954.919 224.497 953.921 223.235 953.188C222.003 952.455 220.625 952.088 219.099 952.088C217.574 952.088 216.181 952.455 214.919 953.188C213.658 953.921 212.661 954.919 211.927 956.18C211.194 957.412 210.827 958.805 210.827 960.36V985H198.683L198.639 941H210.783L210.827 944.256C212.294 942.848 214.01 941.748 215.975 940.956C217.97 940.164 220.067 939.768 222.267 939.768C225.465 939.768 228.354 940.545 230.935 942.1C233.546 943.655 235.629 945.737 237.183 948.348C238.738 950.929 239.515 953.819 239.515 957.016ZM266.812 986.144C262.764 986.144 259.068 985.103 255.724 983.02C252.409 980.937 249.755 978.136 247.76 974.616C245.795 971.096 244.812 967.209 244.812 962.956C244.812 959.759 245.384 956.767 246.528 953.98C247.672 951.164 249.241 948.7 251.236 946.588C253.26 944.447 255.607 942.775 258.276 941.572C260.945 940.369 263.791 939.768 266.812 939.768C270.303 939.768 273.485 940.516 276.36 942.012C279.264 943.508 281.713 945.547 283.708 948.128C285.732 950.709 287.169 953.628 288.02 956.884C288.9 960.14 289.047 963.528 288.46 967.048H257.924C258.305 968.339 258.892 969.512 259.684 970.568C260.505 971.595 261.503 972.416 262.676 973.032C263.879 973.648 265.257 973.971 266.812 974C268.337 974.029 269.745 973.677 271.036 972.944C272.327 972.211 273.427 971.228 274.336 969.996L286.744 972.856C284.955 976.757 282.285 979.955 278.736 982.448C275.187 984.912 271.212 986.144 266.812 986.144ZM257.484 958.072H276.184C275.803 956.605 275.157 955.285 274.248 954.112C273.339 952.939 272.239 952.015 270.948 951.34C269.687 950.665 268.308 950.328 266.812 950.328C265.345 950.328 263.967 950.665 262.676 951.34C261.415 952.015 260.329 952.939 259.42 954.112C258.54 955.256 257.895 956.576 257.484 958.072ZM319.685 953.144H311.765V985H299.621V953.144H293.549V941H299.621V927.184H311.765V941H319.685V953.144ZM368.508 957.016V985H356.364V960.36C356.364 958.805 355.982 957.412 355.22 956.18C354.486 954.919 353.489 953.921 352.228 953.188C350.996 952.455 349.617 952.088 348.092 952.088C346.566 952.088 345.173 952.455 343.912 953.188C342.65 953.921 341.653 954.919 340.92 956.18C340.186 957.412 339.82 958.805 339.82 960.36V985H327.676L327.632 919H339.776L339.82 944.256C341.286 942.848 343.002 941.748 344.968 940.956C346.962 940.164 349.06 939.768 351.26 939.768C354.457 939.768 357.346 940.545 359.928 942.1C362.538 943.655 364.621 945.737 366.176 948.348C367.73 950.929 368.508 953.819 368.508 957.016ZM420.84 986.144C417.379 986.144 414.064 985.601 410.896 984.516C407.757 983.431 405 981.861 402.624 979.808C400.277 977.755 398.591 975.32 397.564 972.504L408.96 968.28C409.312 969.277 410.045 970.216 411.16 971.096C412.275 971.947 413.668 972.651 415.34 973.208C417.012 973.736 418.845 974 420.84 974C422.747 974 424.536 973.721 426.208 973.164C427.909 972.577 429.273 971.771 430.3 970.744C431.356 969.717 431.884 968.515 431.884 967.136C431.884 965.757 431.341 964.613 430.256 963.704C429.171 962.795 427.777 962.076 426.076 961.548C424.375 960.991 422.629 960.565 420.84 960.272C416.411 959.627 412.436 958.585 408.916 957.148C405.425 955.681 402.668 953.672 400.644 951.12C398.62 948.539 397.608 945.268 397.608 941.308C397.608 937.495 398.679 934.165 400.82 931.32C402.991 928.475 405.836 926.26 409.356 924.676C412.905 923.092 416.733 922.3 420.84 922.3C424.243 922.3 427.528 922.843 430.696 923.928C433.864 925.013 436.621 926.583 438.968 928.636C441.344 930.689 443.045 933.153 444.072 936.028L432.676 940.164C432.324 939.167 431.591 938.243 430.476 937.392C429.361 936.541 427.968 935.852 426.296 935.324C424.624 934.796 422.805 934.532 420.84 934.532C418.963 934.503 417.173 934.781 415.472 935.368C413.8 935.955 412.421 936.761 411.336 937.788C410.28 938.815 409.752 939.988 409.752 941.308C409.752 943.039 410.251 944.344 411.248 945.224C412.275 946.104 413.624 946.735 415.296 947.116C416.968 947.497 418.816 947.835 420.84 948.128C425.005 948.744 428.848 949.844 432.368 951.428C435.888 952.983 438.704 955.065 440.816 957.676C442.957 960.257 444.028 963.411 444.028 967.136C444.028 970.949 442.957 974.279 440.816 977.124C438.675 979.969 435.844 982.184 432.324 983.768C428.804 985.352 424.976 986.144 420.84 986.144ZM494.75 957.016V985H482.606V960.36C482.606 958.805 482.224 957.412 481.462 956.18C480.728 954.919 479.731 953.921 478.47 953.188C477.238 952.455 475.859 952.088 474.334 952.088C472.808 952.088 471.415 952.455 470.154 953.188C468.892 953.921 467.895 954.919 467.162 956.18C466.428 957.412 466.062 958.805 466.062 960.36V985H453.918L453.874 919H466.018L466.062 944.256C467.528 942.848 469.244 941.748 471.21 940.956C473.204 940.164 475.302 939.768 477.502 939.768C480.699 939.768 483.588 940.545 486.17 942.1C488.78 943.655 490.863 945.737 492.418 948.348C493.972 950.929 494.75 953.819 494.75 957.016ZM522.046 986.144C517.998 986.144 514.302 985.103 510.958 983.02C507.644 980.937 504.989 978.136 502.994 974.616C501.029 971.096 500.046 967.209 500.046 962.956C500.046 959.759 500.618 956.767 501.762 953.98C502.906 951.164 504.476 948.7 506.47 946.588C508.494 944.447 510.841 942.775 513.51 941.572C516.18 940.369 519.025 939.768 522.046 939.768C525.537 939.768 528.72 940.516 531.594 942.012C534.498 943.508 536.948 945.547 538.942 948.128C540.966 950.709 542.404 953.628 543.254 956.884C544.134 960.14 544.281 963.528 543.694 967.048H513.158C513.54 968.339 514.126 969.512 514.918 970.568C515.74 971.595 516.737 972.416 517.91 973.032C519.113 973.648 520.492 973.971 522.046 974C523.572 974.029 524.98 973.677 526.27 972.944C527.561 972.211 528.661 971.228 529.57 969.996L541.978 972.856C540.189 976.757 537.52 979.955 533.97 982.448C530.421 984.912 526.446 986.144 522.046 986.144ZM512.718 958.072H531.418C531.037 956.605 530.392 955.285 529.482 954.112C528.573 952.939 527.473 952.015 526.182 951.34C524.921 950.665 523.542 950.328 522.046 950.328C520.58 950.328 519.201 950.665 517.91 951.34C516.649 952.015 515.564 952.939 514.654 954.112C513.774 955.256 513.129 956.576 512.718 958.072ZM590.828 957.016V985H578.684V960.36C578.684 958.805 578.303 957.412 577.54 956.18C576.807 954.919 575.809 953.921 574.548 953.188C573.316 952.455 571.937 952.088 570.412 952.088C568.887 952.088 567.493 952.455 566.232 953.188C564.971 953.921 563.973 954.919 563.24 956.18C562.507 957.412 562.14 958.805 562.14 960.36V985H549.996L549.952 919H562.096L562.14 944.256C563.607 942.848 565.323 941.748 567.288 940.956C569.283 940.164 571.38 939.768 573.58 939.768C576.777 939.768 579.667 940.545 582.248 942.1C584.859 943.655 586.941 945.737 588.496 948.348C590.051 950.929 590.828 953.819 590.828 957.016ZM631.06 941H643.204V985H631.016L630.444 980.424C629.3 982.125 627.834 983.504 626.044 984.56C624.255 985.616 622.158 986.144 619.752 986.144C616.467 986.144 613.402 985.528 610.556 984.296C607.711 983.064 605.203 981.363 603.032 979.192C600.862 977.021 599.16 974.513 597.928 971.668C596.726 968.793 596.124 965.713 596.124 962.428C596.124 959.289 596.696 956.356 597.84 953.628C598.984 950.9 600.598 948.495 602.68 946.412C604.763 944.329 607.154 942.701 609.852 941.528C612.58 940.355 615.514 939.768 618.652 939.768C621.351 939.768 623.771 940.34 625.912 941.484C628.083 942.628 629.975 944.08 631.588 945.84L631.06 941ZM619.444 974.484C621.439 974.484 623.243 973.971 624.856 972.944C626.47 971.917 627.746 970.539 628.684 968.808C629.623 967.048 630.092 963 630.092 963C630.092 960.859 629.623 958.923 628.684 957.192C627.746 955.461 626.47 954.083 624.856 953.056C623.243 952.029 621.439 951.516 619.444 951.516C617.42 951.516 615.587 952.029 613.944 953.056C612.302 954.083 610.996 955.476 610.028 957.236C609.06 958.967 608.576 960.888 608.576 963C608.576 965.112 609.06 967.048 610.028 968.808C611.026 970.539 612.346 971.917 613.988 972.944C615.631 973.971 617.45 974.484 619.444 974.484ZM652.09 985L652.046 941H664.19L664.234 944.256C665.7 942.848 667.416 941.748 669.382 940.956C671.376 940.164 673.474 939.768 675.674 939.768C677.287 939.768 678.9 940.003 680.514 940.472L675.718 952.748C674.662 952.308 673.591 952.088 672.506 952.088C670.98 952.088 669.587 952.455 668.326 953.188C667.064 953.921 666.067 954.919 665.334 956.18C664.6 957.412 664.234 958.805 664.234 960.36V985H652.09ZM715.537 941H727.681V985H715.493L714.921 980.424C713.777 982.125 712.31 983.504 710.521 984.56C708.732 985.616 706.634 986.144 704.229 986.144C700.944 986.144 697.878 985.528 695.033 984.296C692.188 983.064 689.68 981.363 687.509 979.192C685.338 977.021 683.637 974.513 682.405 971.668C681.202 968.793 680.601 965.713 680.601 962.428C680.601 959.289 681.173 956.356 682.317 953.628C683.461 950.9 685.074 948.495 687.157 946.412C689.24 944.329 691.63 942.701 694.329 941.528C697.057 940.355 699.99 939.768 703.129 939.768C705.828 939.768 708.248 940.34 710.389 941.484C712.56 942.628 714.452 944.08 716.065 945.84L715.537 941ZM703.921 974.484C705.916 974.484 707.72 973.971 709.333 972.944C710.946 971.917 712.222 970.539 713.161 968.808C714.1 967.048 714.569 965.112 714.569 963C714.569 960.859 714.1 958.923 713.161 957.192C712.222 955.461 710.946 954.083 709.333 953.056C707.72 952.029 705.916 951.516 703.921 951.516C701.897 951.516 700.064 952.029 698.421 953.056C696.778 954.083 695.473 955.476 694.505 957.236C693.537 958.967 693.053 960.888 693.053 963C693.053 965.112 693.537 967.048 694.505 968.808C695.502 970.539 696.822 971.917 698.465 972.944C700.108 973.971 701.926 974.484 703.921 974.484Z" fill="#2666E6"/>
<path d="M83.38 1053.52C81.8467 1053.52 80.3733 1053.28 78.96 1052.8C77.5467 1052.32 76.3133 1051.63 75.26 1050.74C74.2067 1049.83 73.4533 1048.76 73 1047.52L76.9 1046.06C77.1267 1046.7 77.56 1047.27 78.2 1047.78C78.8533 1048.27 79.6267 1048.66 80.52 1048.94C81.4267 1049.22 82.38 1049.36 83.38 1049.36C84.4467 1049.36 85.4467 1049.19 86.38 1048.84C87.3267 1048.49 88.0867 1048.01 88.66 1047.4C89.2467 1046.79 89.54 1046.07 89.54 1045.24C89.54 1044.39 89.2333 1043.69 88.62 1043.14C88.02 1042.59 87.2467 1042.16 86.3 1041.84C85.3667 1041.52 84.3933 1041.28 83.38 1041.12C81.42 1040.8 79.66 1040.33 78.1 1039.72C76.5533 1039.11 75.3267 1038.25 74.42 1037.14C73.5267 1036.03 73.08 1034.59 73.08 1032.82C73.08 1031.15 73.5533 1029.7 74.5 1028.46C75.46 1027.22 76.72 1026.26 78.28 1025.58C79.8533 1024.89 81.5533 1024.54 83.38 1024.54C84.8867 1024.54 86.34 1024.78 87.74 1025.26C89.1533 1025.73 90.3933 1026.41 91.46 1027.32C92.54 1028.21 93.3133 1029.3 93.78 1030.58L89.84 1032C89.6133 1031.35 89.18 1030.78 88.54 1030.3C87.9 1029.81 87.1267 1029.42 86.22 1029.14C85.3267 1028.86 84.38 1028.72 83.38 1028.72C82.3133 1028.71 81.3133 1028.88 80.38 1029.24C79.46 1029.59 78.7067 1030.07 78.12 1030.68C77.5333 1031.29 77.24 1032.01 77.24 1032.82C77.24 1033.82 77.5133 1034.58 78.06 1035.1C78.6067 1035.62 79.34 1036.01 80.26 1036.26C81.1933 1036.5 82.2333 1036.92 83.38 1036.92C85.22 1037.21 86.92 1037.7 88.48 1038.38C90.0533 1039.06 91.3133 1039.97 92.26 1041.1C93.22 1042.22 93.7 1043.6 93.7 1045.24C93.7 1046.89 93.22 1048.35 92.26 1049.6C91.3133 1050.84 90.0533 1051.81 88.48 1052.5C86.92 1053.18 85.22 1053.52 83.38 1053.52ZM110.858 1053.52C109.018 1053.52 107.338 1053.05 105.818 1052.1C104.311 1051.15 103.104 1049.89 102.198 1048.3C101.304 1046.7 100.858 1044.93 100.858 1043C100.858 1041.53 101.118 1040.17 101.638 1038.9C102.158 1037.62 102.871 1036.5 103.778 1035.54C104.698 1034.57 105.764 1033.81 106.978 1033.26C108.191 1032.71 109.484 1032.44 110.858 1032.44C112.698 1032.44 114.371 1032.91 115.878 1033.86C117.398 1034.81 118.604 1036.08 119.498 1037.68C120.404 1039.28 120.858 1041.05 120.858 1043C120.858 1044.45 120.598 1045.81 120.078 1047.08C119.558 1048.35 118.838 1049.47 117.918 1050.44C117.011 1051.4 115.951 1052.15 114.738 1052.7C113.538 1053.25 112.244 1053.52 110.858 1053.52ZM110.858 1049.36C111.964 1049.36 112.958 1049.07 113.838 1048.48C114.718 1047.89 115.411 1047.12 115.918 1046.16C116.438 1045.19 116.698 1044.13 116.698 1043C116.698 1041.84 116.431 1040.77 115.898 1039.8C115.378 1038.83 114.678 1038.05 113.798 1037.48C112.918 1036.89 111.938 1036.6 110.858 1036.6C109.764 1036.6 108.771 1036.89 107.878 1037.48C106.998 1038.07 106.298 1038.85 105.778 1039.82C105.271 1040.79 105.018 1041.85 105.018 1043C105.018 1044.19 105.284 1045.26 105.818 1046.22C106.351 1047.18 107.058 1047.95 107.938 1048.52C108.831 1049.08 109.804 1049.36 110.858 1049.36ZM133.981 1028.46V1033H139.621V1037.16H133.981V1053H129.821V1037.16H127.441V1033H129.821V1028.46C129.821 1027.37 130.087 1026.37 130.621 1025.48C131.154 1024.57 131.867 1023.85 132.761 1023.32C133.667 1022.79 134.674 1022.52 135.781 1022.52C136.581 1022.52 137.361 1022.68 138.121 1023C138.881 1023.32 139.561 1023.81 140.161 1024.48L137.181 1027.42C137.034 1027.18 136.827 1027 136.561 1026.88C136.307 1026.75 136.047 1026.68 135.781 1026.68C135.287 1026.68 134.861 1026.85 134.501 1027.2C134.154 1027.55 133.981 1027.97 133.981 1028.46ZM158.488 1037.16H154.288L154.268 1053H150.108L150.128 1037.16H146.948V1033H150.128L150.108 1026.72H154.268L154.288 1033H158.488V1037.16ZM176.109 1053H171.969L165.269 1033H169.349L174.069 1047.04L178.749 1033H182.949L187.629 1047.04L192.329 1033H196.409L189.729 1053H185.549L180.829 1038.86L176.109 1053ZM218.694 1033H222.854V1053H218.674L218.514 1050.1C217.928 1051.13 217.134 1051.95 216.134 1052.58C215.134 1053.21 213.954 1053.52 212.594 1053.52C211.128 1053.52 209.748 1053.25 208.454 1052.7C207.161 1052.14 206.021 1051.37 205.034 1050.38C204.061 1049.39 203.301 1048.26 202.754 1046.98C202.208 1045.69 201.934 1044.3 201.934 1042.82C201.934 1041.39 202.201 1040.05 202.734 1038.8C203.268 1037.53 204.008 1036.43 204.954 1035.48C205.901 1034.53 206.994 1033.79 208.234 1033.26C209.488 1032.71 210.828 1032.44 212.254 1032.44C213.708 1032.44 214.988 1032.77 216.094 1033.44C217.214 1034.09 218.141 1034.93 218.874 1035.96L218.694 1033ZM212.494 1049.5C213.668 1049.5 214.694 1049.21 215.574 1048.64C216.454 1048.05 217.134 1047.27 217.614 1046.28C218.108 1045.29 218.354 1044.2 218.354 1043C218.354 1041.79 218.108 1040.69 217.614 1039.7C217.121 1038.71 216.434 1037.93 215.554 1037.36C214.688 1036.77 213.668 1036.48 212.494 1036.48C211.334 1036.48 210.274 1036.77 209.314 1037.36C208.354 1037.95 207.594 1038.73 207.034 1039.72C206.474 1040.71 206.194 1041.8 206.194 1043C206.194 1044.21 206.481 1045.31 207.054 1046.3C207.641 1047.27 208.408 1048.05 209.354 1048.64C210.314 1049.21 211.361 1049.5 212.494 1049.5ZM231.245 1053V1033H235.405V1035.12C236.099 1034.29 236.952 1033.64 237.965 1033.16C238.979 1032.68 240.072 1032.44 241.245 1032.44C241.992 1032.44 242.732 1032.54 243.465 1032.74L241.805 1036.94C241.805 1036.94 241.285 1036.74 240.245 1036.64C239.365 1036.64 238.559 1036.86 237.825 1037.3C237.092 1037.73 236.505 1038.31 236.065 1039.04C235.625 1039.77 235.405 1040.59 235.405 1041.48V1053H231.245ZM258.039 1053.52C256.199 1053.52 254.519 1053.05 252.999 1052.1C251.492 1051.15 250.286 1049.89 249.379 1048.3C248.486 1046.7 248.039 1044.93 248.039 1043C248.039 1041.53 248.299 1040.17 248.819 1038.9C249.339 1037.62 250.052 1036.5 250.959 1035.54C251.879 1034.57 252.946 1033.81 254.159 1033.26C255.372 1032.71 256.666 1032.44 258.039 1032.44C259.572 1032.44 260.979 1032.76 262.259 1033.4C263.539 1034.03 264.632 1034.9 265.539 1036.02C266.446 1037.13 267.112 1038.41 267.539 1039.86C267.966 1041.3 268.092 1042.83 267.919 1044.46H252.499C252.672 1045.38 253.006 1046.21 253.499 1046.96C254.006 1047.69 254.646 1048.27 255.419 1048.7C256.206 1049.13 257.079 1049.35 258.039 1049.36C259.052 1049.36 259.972 1049.11 260.799 1048.6C261.639 1048.09 262.326 1047.39 262.859 1046.5L267.079 1047.48C267.079 1047.48 266.279 1049.25 265.072 1050.71 263.459 1051.84C261.846 1052.96 260.039 1053.52 258.039 1053.52ZM252.359 1041.28H263.719C263.586 1040.32 263.246 1039.45 262.699 1038.68C262.166 1037.89 261.492 1037.27 260.679 1036.82C259.879 1036.35 258.999 1036.12 258.039 1036.12C257.092 1036.12 256.212 1036.35 255.399 1036.8C254.599 1037.25 253.932 1037.87 253.399 1038.66C252.879 1039.43 252.532 1040.31 252.359 1041.28ZM289.992 1053V1025H307.372V1029.16H294.152V1035.92H304.792V1040.08H294.152V1048.84H307.372V1053H289.992ZM334.189 1040.46V1053H330.029V1041.48C330.029 1040.59 329.809 1039.77 329.369 1039.04C328.942 1038.31 328.362 1037.73 327.629 1037.3C326.909 1036.86 326.096 1036.64 325.189 1036.64C324.309 1036.64 323.502 1036.86 322.769 1037.3C322.036 1037.73 321.449 1038.31 321.009 1039.04C320.569 1039.77 320.349 1040.59 320.349 1041.48V1053H316.189V1033H320.349V1035.12C321.042 1034.29 321.896 1033.64 322.909 1033.16C323.922 1032.68 325.016 1032.44 326.189 1032.44C327.669 1032.44 329.016 1032.8 330.229 1033.52C331.442 1034.24 332.402 1035.21 333.109 1036.42C333.829 1037.63 334.189 1038.98 334.189 1040.46ZM357.411 1033H361.571V1053.52C361.571 1054.89 361.277 1056.16 360.691 1057.32C360.117 1058.48 359.337 1059.48 358.351 1060.32C357.364 1061.17 356.231 1061.83 354.951 1062.3C353.684 1062.77 352.357 1063 350.971 1063C349.571 1063 348.224 1062.7 346.931 1062.1C345.637 1061.51 344.497 1060.71 343.511 1059.7C342.537 1058.69 341.811 1057.54 341.331 1056.26L345.151 1054.54C345.417 1055.37 345.844 1056.1 346.431 1056.74C347.031 1057.38 347.724 1057.89 348.511 1058.26C349.311 1058.63 350.131 1058.82 350.971 1058.82C351.797 1058.82 352.591 1058.69 353.351 1058.42C354.124 1058.17 354.811 1057.81 355.411 1057.34C356.024 1056.87 356.511 1056.31 356.871 1055.66C357.231 1055.01 357.411 1054.29 357.411 1053.52V1050.14C356.757 1051.15 355.917 1051.97 354.891 1052.6C353.864 1053.21 352.671 1053.52 351.311 1053.52C349.897 1053.52 348.564 1053.25 347.311 1052.7C346.057 1052.15 344.957 1051.4 344.011 1050.44C343.064 1049.47 342.324 1048.35 341.791 1047.08C341.257 1045.81 340.991 1044.45 340.991 1043C340.991 1041.55 341.257 1040.19 341.791 1038.92C342.324 1037.64 343.064 1036.52 344.011 1035.56C344.957 1034.59 346.057 1033.83 347.311 1033.28C348.564 1032.73 349.897 1032.46 351.311 1032.46C352.671 1032.46 353.864 1032.77 354.891 1033.4C355.917 1034.01 356.757 1034.83 357.411 1035.86V1033ZM351.351 1049.5C352.511 1049.5 353.524 1049.21 354.391 1048.62C355.257 1048.02 355.931 1047.23 356.411 1046.24C356.891 1045.25 357.131 1044.17 357.131 1043C357.131 1041.8 356.884 1040.71 356.391 1039.74C355.911 1038.75 355.237 1037.97 354.371 1037.38C353.504 1036.78 352.497 1036.48 351.351 1036.48C350.231 1036.48 349.204 1036.77 348.271 1037.36C347.351 1037.95 346.617 1038.73 346.071 1039.72C345.524 1040.71 345.251 1041.8 345.251 1043C345.251 1044.2 345.524 1045.29 346.071 1046.28C346.631 1047.27 347.371 1048.05 348.291 1048.64C349.224 1049.21 350.244 1049.5 351.351 1049.5ZM370.419 1033H374.579V1053H370.419V1033ZM372.539 1030.1C371.899 1030.1 371.365 1029.89 370.939 1029.48C370.512 1029.07 370.299 1028.55 370.299 1027.92C370.299 1027.31 370.512 1026.79 370.939 1026.38C371.365 1025.95 371.892 1025.74 372.519 1025.74C373.132 1025.74 373.652 1025.95 374.079 1026.38C374.505 1026.79 374.719 1027.31 374.719 1027.92C374.719 1028.55 374.505 1029.07 374.079 1029.48C373.665 1029.89 373.152 1030.1 372.539 1030.1ZM401.608 1040.46V1053H397.448V1041.48C397.448 1040.59 397.228 1039.77 396.788 1039.04C396.361 1038.31 395.781 1037.73 395.048 1037.3C394.328 1036.86 393.514 1036.64 392.608 1036.64C391.728 1036.64 390.921 1036.86 390.188 1037.3C389.454 1037.73 388.868 1038.31 388.428 1039.04C387.988 1039.77 387.768 1040.59 387.768 1041.48V1053H383.608V1033H387.768V1035.12C388.461 1034.29 389.314 1033.64 390.328 1033.16C391.341 1032.68 392.434 1032.44 393.608 1032.44C395.088 1032.44 396.434 1032.8 397.648 1033.52C398.861 1034.24 399.821 1035.21 400.528 1036.42C401.248 1037.63 401.608 1038.98 401.608 1040.46ZM418.409 1053.52C416.569 1053.52 414.889 1053.05 413.369 1052.1C411.863 1051.15 410.656 1049.89 409.749 1048.3C408.856 1046.7 408.409 1044.93 408.409 1043C408.409 1041.53 408.669 1040.17 409.189 1038.9C409.709 1037.62 410.423 1036.5 411.329 1035.54C412.249 1034.57 413.316 1033.81 414.529 1033.26C415.743 1032.71 417.036 1032.44 418.409 1032.44C419.943 1032.44 421.349 1032.76 422.629 1033.4C423.909 1034.03 425.003 1034.9 425.909 1036.02C426.816 1037.13 427.483 1038.41 427.909 1039.86C428.336 1041.3 428.463 1042.83 428.289 1044.46H412.869C413.043 1045.38 413.376 1046.21 413.869 1046.96C414.376 1047.69 415.016 1048.27 415.789 1048.7C416.576 1049.13 417.449 1049.35 418.409 1049.36C419.423 1049.36 420.343 1049.11 421.169 1048.6C422.009 1048.09 422.696 1047.39 423.229 1046.5L427.449 1047.48C427.449 1047.48 426.649 1049.25 425.443 1050.71 423.829 1051.84 422.216 1052.96 420.409 1053.52ZM412.729 1041.28H424.089C423.956 1040.32 423.616 1039.45 423.069 1038.68C422.536 1037.89 421.863 1037.27 421.049 1036.82C420.249 1036.35 419.369 1036.12 418.409 1036.12C417.463 1036.12 416.583 1036.35 415.769 1036.8C414.969 1037.25 414.303 1037.87 413.769 1038.66C413.249 1039.43 412.903 1040.31 412.729 1041.28ZM444.763 1053.52C442.923 1053.52 441.243 1053.05 439.723 1052.1C438.216 1051.15 437.009 1049.89 436.103 1048.3C435.209 1046.7 434.763 1044.93 434.763 1043C434.763 1041.53 435.023 1040.17 435.543 1038.9C436.063 1037.62 436.776 1036.5 437.683 1035.54C438.603 1034.57 439.669 1033.81 440.883 1033.26C442.096 1032.71 443.389 1032.44 444.763 1032.44C446.296 1032.44 447.703 1032.76 448.983 1033.4C450.263 1034.03 451.356 1034.9 452.263 1036.02C453.169 1037.13 453.836 1038.41 454.263 1039.86C454.689 1041.3 454.816 1042.83 454.643 1044.46H439.223C439.396 1045.38 439.729 1046.21 440.223 1046.96C440.729 1047.69 441.369 1048.27 442.143 1048.7C442.929 1049.13 443.803 1049.35 444.763 1049.36C445.776 1049.36 446.696 1049.11 447.523 1048.6C448.363 1048.09 449.049 1047.39 449.583 1046.5L453.803 1047.48C453.803 1047.48 453.003 1049.25 451.796 1050.71 450.183 1051.84 448.569 1052.96 446.763 1053.52ZM439.083 1041.28H450.443C450.309 1040.32 449.969 1039.45 449.423 1038.68C448.889 1037.89 448.216 1037.27 447.403 1036.82C446.603 1036.35 445.723 1036.12 444.763 1036.12C443.816 1036.12 442.936 1036.35 442.123 1036.8C441.323 1037.25 440.656 1037.87 440.123 1038.66C439.603 1039.43 439.256 1040.31 439.083 1041.28ZM462.355 1053V1033H466.515V1035.12C467.208 1034.29 468.061 1033.64 469.075 1033.16C470.088 1032.68 471.181 1032.44 472.355 1032.44C473.101 1032.44 473.841 1032.54 474.575 1032.74L472.915 1036.94C472.395 1036.74 471.875 1036.64 471.355 1036.64C470.475 1036.64 469.668 1036.86 468.935 1037.3C468.201 1037.73 467.615 1038.31 467.175 1039.04C466.735 1039.77 466.515 1040.59 466.515 1041.48V1053H462.355Z" fill="#2666E6"/>
<path d="M685.564 1367.43C683.644 1367.43 681.868 1367.1 680.236 1366.42C678.628 1365.75 677.212 1364.82 675.988 1363.62C674.764 1362.42 673.816 1361.02 673.144 1359.44C672.472 1357.83 672.136 1356.1 672.136 1354.26C672.136 1352.38 672.472 1350.66 673.144 1349.07C673.816 1347.49 674.752 1346.11 675.952 1344.93C677.152 1343.73 678.556 1342.81 680.164 1342.16C681.796 1341.49 683.572 1341.15 685.492 1341.15C687.388 1341.15 689.14 1341.49 690.748 1342.16C692.38 1342.81 693.796 1343.73 694.996 1344.93C696.22 1346.11 697.168 1347.5 697.84 1349.11C698.512 1350.69 698.848 1352.42 698.848 1354.29C698.848 1356.14 698.512 1357.87 697.84 1359.48C697.168 1361.06 696.232 1362.45 695.032 1363.65C693.832 1364.83 692.416 1365.75 690.784 1366.42C689.176 1367.1 687.436 1367.43 685.564 1367.43ZM685.492 1362.28C687.004 1362.28 688.324 1361.95 689.452 1361.28C690.604 1360.6 691.492 1359.67 692.116 1358.47C692.74 1357.24 693.052 1355.84 693.052 1354.26C693.052 1353.06 692.872 1351.98 692.512 1351.02C692.152 1350.03 691.636 1349.19 690.964 1348.5C690.292 1347.78 689.488 1347.24 688.552 1346.88C687.64 1346.49 686.62 1346.3 685.492 1346.3C683.98 1346.3 682.648 1346.64 681.496 1347.31C680.368 1347.96 679.492 1348.88 678.868 1350.08C678.244 1351.26 677.932 1352.65 677.932 1354.26C677.932 1355.46 678.112 1356.55 678.472 1357.53C678.832 1358.52 679.336 1359.37 679.984 1360.09C680.656 1360.78 681.46 1361.32 682.396 1361.71C683.332 1362.09 684.364 1362.28 685.492 1362.28ZM712.012 1367.36C710.836 1367.36 709.756 1367.13 708.772 1366.68C707.788 1366.22 706.984 1365.6 706.36 1364.8C705.736 1363.99 705.376 1363.06 705.28 1362.03V1354.65C705.376 1353.62 705.736 1352.68 706.36 1351.84C706.984 1351 707.788 1350.34 708.772 1349.86C709.756 1349.38 710.836 1349.14 712.012 1349.14C713.668 1349.14 715.132 1349.54 716.404 1350.33C717.7 1351.12 718.708 1352.2 719.428 1353.57C720.172 1354.94 720.544 1356.5 720.544 1358.25C720.544 1360 720.172 1361.56 719.428 1362.93C718.708 1364.3 717.7 1365.38 716.404 1366.17C715.132 1366.96 713.668 1367.36 712.012 1367.36ZM701.932 1374.38V1349.5H707.44V1354L706.54 1358.25L707.368 1362.5V1374.38H701.932ZM711.004 1362.39C711.796 1362.39 712.48 1362.21 713.056 1361.85C713.656 1361.49 714.124 1361 714.46 1360.38C714.796 1359.75 714.964 1359.04 714.964 1358.25C714.964 1357.44 714.796 1356.72 714.46 1356.09C714.124 1355.47 713.656 1354.99 713.056 1354.65C712.48 1354.29 711.808 1354.11 711.04 1354.11C710.272 1354.11 709.588 1354.29 708.988 1354.65C708.412 1354.99 707.956 1355.47 707.62 1356.09C707.284 1356.72 707.116 1357.44 707.116 1358.25C707.116 1359.04 707.272 1359.75 707.584 1360.38C707.92 1361 708.388 1361.49 708.988 1361.85C709.588 1362.21 710.26 1362.39 711.004 1362.39ZM731.982 1367.4C730.086 1367.4 728.394 1367.01 726.906 1366.24C725.442 1365.45 724.29 1364.36 723.45 1362.97C722.61 1361.58 722.19 1360 722.19 1358.25C722.19 1356.5 722.598 1354.94 723.414 1353.57C724.254 1352.18 725.382 1351.09 726.798 1350.3C728.214 1349.5 729.81 1349.11 731.586 1349.11C733.314 1349.11 734.838 1349.48 736.158 1350.22C737.478 1350.97 738.51 1352 739.254 1353.32C740.022 1354.64 740.406 1356.15 740.406 1357.86C740.406 1358.17 740.382 1358.5 740.334 1358.86C740.31 1359.2 740.25 1359.6 740.154 1360.05L725.07 1360.09V1356.31L737.814 1356.27L735.438 1357.86C735.414 1356.85 735.258 1356.02 734.97 1355.37C734.682 1354.7 734.25 1354.2 733.674 1353.86C733.122 1353.5 732.438 1353.32 731.622 1353.32C730.758 1353.32 730.002 1353.52 729.354 1353.93C728.73 1354.32 728.238 1354.87 727.878 1355.59C727.542 1356.31 727.374 1357.18 727.374 1358.22C727.374 1359.25 727.554 1360.14 727.914 1360.88C728.298 1361.6 728.826 1362.16 729.498 1362.57C730.194 1362.96 731.01 1363.15 731.946 1363.15C732.81 1363.15 733.59 1363 734.286 1362.72C734.982 1362.4 735.594 1361.95 736.122 1361.35L739.146 1364.37C738.282 1365.38 737.238 1366.14 736.014 1366.64C734.79 1367.14 733.446 1367.4 731.982 1367.4ZM754.621 1367V1357.03C754.621 1356.12 754.333 1355.38 753.757 1354.83C753.205 1354.26 752.497 1353.97 751.633 1353.97C751.033 1353.97 750.505 1354.1 750.049 1354.36C749.593 1354.6 749.233 1354.96 748.969 1355.44C748.705 1355.9 748.573 1356.43 748.573 1357.03L746.449 1355.98C746.449 1354.6 746.749 1353.42 747.349 1352.38C747.949 1351.35 748.777 1350.56 749.833 1350.01C750.913 1349.43 752.125 1349.14 753.469 1349.14C754.765 1349.14 755.905 1349.46 756.889 1350.08C757.897 1350.68 758.689 1351.48 759.265 1352.49C759.841 1353.5 760.129 1354.6 760.129 1355.8V1367H754.621ZM743.065 1367V1349.5H748.573V1367H743.065ZM776.692 1367V1341.94H782.344V1367H776.692ZM768.736 1346.52V1341.58H790.3V1346.52H768.736ZM797.192 1367.4C795.392 1367.4 793.76 1367 792.296 1366.21C790.856 1365.39 789.716 1364.29 788.876 1362.9C788.036 1361.5 787.616 1359.94 787.616 1358.22C787.616 1356.49 788.036 1354.94 788.876 1353.57C789.716 1352.2 790.856 1351.12 792.296 1350.33C793.736 1349.52 795.368 1349.11 797.192 1349.11C799.016 1349.11 800.648 1349.5 802.088 1350.3C803.528 1351.09 804.668 1352.18 805.508 1353.57C806.348 1354.94 806.768 1356.49 806.768 1358.22C806.768 1359.94 806.348 1361.5 805.508 1362.9C804.668 1364.29 803.528 1365.39 802.088 1366.21C800.648 1367 799.016 1367.4 797.192 1367.4ZM797.192 1362.39C797.984 1362.39 798.68 1362.22 799.28 1361.89C799.88 1361.53 800.336 1361.04 800.648 1360.41C800.984 1359.76 801.152 1359.03 801.152 1358.22C801.152 1357.4 800.984 1356.69 800.648 1356.09C800.312 1355.47 799.844 1354.99 799.244 1354.65C798.668 1354.29 797.984 1354.11 797.192 1354.11C796.424 1354.11 795.74 1354.29 795.14 1354.65C794.54 1354.99 794.072 1355.47 793.736 1356.09C793.4 1356.72 793.232 1357.44 793.232 1358.25C793.232 1359.04 793.4 1359.76 793.736 1360.41C794.072 1361.04 794.54 1361.53 795.14 1361.89C795.74 1362.22 796.424 1362.39 797.192 1362.39ZM823.206 1367L815.034 1341.58H820.65L826.626 1361.13H824.43L830.262 1341.58H834.69L840.522 1361.13H838.362L844.302 1341.58H849.882L841.71 1367H837.282L831.414 1347.45H833.502L827.634 1367H823.206ZM858.61 1367.4C856.81 1367.4 855.178 1367 853.714 1366.21C852.274 1365.39 851.134 1364.29 850.294 1362.9C849.454 1361.5 849.034 1359.94 849.034 1358.22C849.034 1356.49 849.454 1354.94 850.294 1353.57C851.134 1352.2 852.274 1351.12 853.714 1350.33C855.154 1349.52 856.786 1349.11 858.61 1349.11C860.434 1349.11 862.066 1349.5 863.506 1350.3C864.946 1351.09 866.086 1352.18 866.926 1353.57C867.766 1354.94 868.186 1356.49 868.186 1358.22C868.186 1359.94 867.766 1361.5 866.926 1362.9C866.086 1364.29 864.946 1365.39 863.506 1366.21C862.066 1367 860.434 1367.4 858.61 1367.4ZM858.61 1362.39C859.402 1362.39 860.098 1362.22 860.698 1361.89C861.298 1361.53 861.754 1361.04 862.066 1360.41C862.402 1359.76 862.57 1359.03 862.57 1358.22C862.57 1357.4 862.402 1356.69 862.066 1356.09C861.73 1355.47 861.262 1354.99 860.662 1354.65C860.086 1354.29 859.402 1354.11 858.61 1354.11C857.842 1354.11 857.158 1354.29 856.558 1354.65C855.958 1354.99 855.49 1355.47 855.154 1356.09C854.818 1356.72 854.65 1357.44 854.65 1358.25C854.65 1359.04 854.818 1359.76 855.154 1360.41C855.49 1361.04 855.958 1361.53 856.558 1361.89C857.158 1362.22 857.842 1362.39 858.61 1362.39ZM870.928 1367V1349.5H876.436V1367H870.928ZM876.436 1357.39L874.132 1355.59C874.588 1353.55 875.356 1351.96 876.436 1350.84C877.516 1349.71 879.016 1349.14 880.936 1349.14C881.776 1349.14 882.508 1349.28 883.132 1349.54C883.78 1349.78 884.344 1350.16 884.824 1350.69L881.548 1354.83C881.308 1354.57 881.008 1354.36 880.648 1354.22C880.288 1354.08 879.88 1354 879.424 1354C878.512 1354 877.78 1354.29 877.228 1354.87C876.7 1355.42 876.436 1356.26 876.436 1357.39ZM897.488 1367L891.368 1357.93L897.452 1349.5H903.608L896.264 1358.97L896.444 1356.7L903.968 1367H897.488ZM886.292 1367V1340.86H891.8V1367H886.292Z" fill="#2666E6"/>
</g>
<defs>
<filter id="filter0_d_1_28" x="0" y="0" width="972" height="1453" filterUnits="userSpaceOnUse" color-interpolation-filters="sRGB">
<feFlood flood-opacity="0" result="BackgroundImageFix"/>
<feColorMatrix in="SourceAlpha" type="matrix" values="0 0 0 0 0 0 0 0 0 0 0 0 0 0 0 0 0 0 127 0" result="hardAlpha"/>
<feOffset dy="4"/>
<feGaussianBlur stdDeviation="2.5"/>
<feComposite in2="hardAlpha" operator="out"/>
<feColorMatrix type="matrix" values="0 0 0 0 0 0 0 0 0 0 0 0 0 0 0 0 0 0 0.25 0"/>
<feBlend mode="normal" in2="BackgroundImageFix" result="effect1_dropShadow_1_28"/>
<feBlend mode="normal" in="SourceGraphic" in2="effect1_dropShadow_1_28" result="shape"/>
</filter>
<filter id="filter1_n_1_28" x="71" y="66" width="833" height="766" filterUnits="userSpaceOnUse" color-interpolation-filters="sRGB">
<feFlood flood-opacity="0" result="BackgroundImageFix"/>
<feBlend mode="normal" in="SourceGraphic" in2="BackgroundImageFix" result="shape"/>
<feTurbulence type="fractalNoise" baseFrequency="0.71428573131561279 0.71428573131561279" stitchTiles="stitch" numOctaves="3" result="noise" seed="2065" />
<feColorMatrix in="noise" type="luminanceToAlpha" result="alphaNoise" />
<feComponentTransfer in="alphaNoise" result="coloredNoise1">
<feFuncA type="discrete" tableValues="0 0 0 1 1 1 1 1 1 1 1 1 1 1 1 1 1 1 1 1 1 1 1 1 1 1 1 1 1 1 1 1 1 1 1 1 1 1 1 1 1 1 1 1 1 1 1 0 0 0 0 0 0 0 0 0 0 0 0 0 0 0 0 0 0 0 0 0 0 0 0 0 0 0 0 0 0 0 0 0 0 0 0 0 0 0 0 0 0 0 0 0 0 0 0 0 0 0 0 0 "/>
</feComponentTransfer>
<feComposite operator="in" in2="shape" in="coloredNoise1" result="noise1Clipped" />
<feFlood flood-color="rgba(248, 250, 252, 0.25)" result="color1Flood" />
<feComposite operator="in" in2="noise1Clipped" in="color1Flood" result="color1" />
<feMerge result="effect1_noise_1_28">
<feMergeNode in="shape" />
<feMergeNode in="color1" />
</feMerge>
</filter>
<linearGradient id="paint0_linear_1_28" x1="904" y1="66" x2="71" y2="832" gradientUnits="userSpaceOnUse">
<stop stop-color="#2C4EC9"/>
<stop offset="0.245" stop-color="#094ECE"/>
<stop offset="0.495" stop-color="#206ACF"/>
<stop offset="0.765" stop-color="#6D9ED9"/>
<stop offset="1" stop-color="#ABCAE7"/>
</linearGradient>
<clipPath id="clip0_1_28">
<rect x="257" y="1325" width="48" height="56" fill="white"/>
</clipPath>
</defs>
</svg>
