<svg width="21" height="26" viewBox="0 0 21 26" fill="none" xmlns="http://www.w3.org/2000/svg">
<path d="M20 10.2668C20 16.0504 13.4224 22.0738 11.2137 23.9341C11.0079 24.085 10.7574 24.1666 10.5 24.1666C10.2426 24.1666 9.99208 24.085 9.78631 23.9341C7.57756 22.0738 1 16.0504 1 10.2668C1 7.80907 2.00089 5.45203 3.78249 3.71417C5.56408 1.97632 7.98044 1 10.5 1C13.0196 1 15.4359 1.97632 17.2175 3.71417C18.9991 5.45203 20 7.80907 20 10.2668Z" stroke="#1E1E1E" stroke-width="2" stroke-linecap="round" stroke-linejoin="round"/>
<path d="M10.5001 13.7419C12.4676 13.7419 14.0626 12.1861 14.0626 10.2668C14.0626 8.34764 12.4676 6.79181 10.5001 6.79181C8.53255 6.79181 6.93756 8.34764 6.93756 10.2668C6.93756 12.1861 8.53255 13.7419 10.5001 13.7419Z" stroke="#1E1E1E" stroke-width="2" stroke-linecap="round" stroke-linejoin="round"/>
</svg>
