<svg width="196" height="49" viewBox="0 0 196 49" fill="none" xmlns="http://www.w3.org/2000/svg">
<rect width="196" height="49" rx="15" fill="#1E1E1E"/>
<path d="M51.4 31.18C50.584 31.18 49.876 31.03 49.276 30.73C48.688 30.418 48.232 29.974 47.908 29.398C47.596 28.81 47.44 28.126 47.44 27.346V21.514C47.44 20.722 47.596 20.038 47.908 19.462C48.232 18.886 48.688 18.448 49.276 18.148C49.876 17.836 50.584 17.68 51.4 17.68C52.216 17.68 52.918 17.836 53.506 18.148C54.106 18.448 54.562 18.886 54.874 19.462C55.198 20.038 55.36 20.716 55.36 21.496V27.346C55.36 28.126 55.198 28.81 54.874 29.398C54.562 29.974 54.106 30.418 53.506 30.73C52.918 31.03 52.216 31.18 51.4 31.18ZM51.4 29.452C52.06 29.452 52.558 29.272 52.894 28.912C53.242 28.54 53.416 28.018 53.416 27.346V21.514C53.416 20.83 53.242 20.308 52.894 19.948C52.558 19.588 52.06 19.408 51.4 19.408C50.752 19.408 50.254 19.588 49.906 19.948C49.558 20.308 49.384 20.83 49.384 21.514V27.346C49.384 28.018 49.558 28.54 49.906 28.912C50.254 29.272 50.752 29.452 51.4 29.452ZM58.305 34.24V21.1H60.231V22.99H60.645L60.231 23.44C60.231 22.66 60.471 22.048 60.951 21.604C61.443 21.148 62.097 20.92 62.913 20.92C63.909 20.92 64.701 21.256 65.289 21.928C65.889 22.588 66.189 23.494 66.189 24.646V27.436C66.189 28.204 66.051 28.87 65.775 29.434C65.511 29.986 65.133 30.418 64.641 30.73C64.161 31.03 63.585 31.18 62.913 31.18C62.109 31.18 61.461 30.958 60.969 30.514C60.477 30.058 60.231 29.44 60.231 28.66L60.645 29.11H60.195L60.249 31.414V34.24H58.305ZM62.247 29.488C62.883 29.488 63.375 29.308 63.723 28.948C64.083 28.576 64.263 28.042 64.263 27.346V24.754C64.263 24.058 64.083 23.53 63.723 23.17C63.375 22.798 62.883 22.612 62.247 22.612C61.635 22.612 61.149 22.804 60.789 23.188C60.429 23.56 60.249 24.082 60.249 24.754V27.346C60.249 28.018 60.429 28.546 60.789 28.93C61.149 29.302 61.635 29.488 62.247 29.488ZM72.9859 31.18C72.1819 31.18 71.4739 31.024 70.8619 30.712C70.2619 30.388 69.7999 29.938 69.4759 29.362C69.1519 28.786 68.9899 28.114 68.9899 27.346V24.754C68.9899 23.974 69.1519 23.302 69.4759 22.738C69.7999 22.162 70.2619 21.718 70.8619 21.406C71.4739 21.082 72.1819 20.92 72.9859 20.92C73.8019 20.92 74.5099 21.082 75.1099 21.406C75.7099 21.718 76.1719 22.162 76.4959 22.738C76.8199 23.302 76.9819 23.974 76.9819 24.754V26.518H70.8619V27.346C70.8619 28.078 71.0419 28.636 71.4019 29.02C71.7739 29.404 72.3079 29.596 73.0039 29.596C73.5679 29.596 74.0239 29.5 74.3719 29.308C74.7199 29.104 74.9359 28.81 75.0199 28.426H76.9459C76.8019 29.266 76.3699 29.938 75.6499 30.442C74.9299 30.934 74.0419 31.18 72.9859 31.18ZM75.1099 25.348V24.736C75.1099 24.016 74.9299 23.458 74.5699 23.062C74.2099 22.666 73.6819 22.468 72.9859 22.468C72.3019 22.468 71.7739 22.666 71.4019 23.062C71.0419 23.458 70.8619 24.022 70.8619 24.754V25.204L75.2539 25.186L75.1099 25.348ZM79.8909 31V21.1H81.8169V22.99H82.2849L81.8169 23.44C81.8169 22.648 82.0509 22.03 82.5189 21.586C82.9869 21.142 83.6349 20.92 84.4629 20.92C85.4469 20.92 86.2329 21.238 86.8209 21.874C87.4089 22.498 87.7029 23.344 87.7029 24.412V31H85.7589V24.628C85.7589 23.98 85.5849 23.482 85.2369 23.134C84.8889 22.786 84.4149 22.612 83.8149 22.612C83.2029 22.612 82.7169 22.798 82.3569 23.17C82.0089 23.53 81.8349 24.058 81.8349 24.754V31H79.8909ZM104.393 31V19.642H100.883V17.842H109.847V19.642H106.337V31H104.393ZM116.158 31.162C115.342 31.162 114.634 31.006 114.034 30.694C113.434 30.382 112.972 29.938 112.648 29.362C112.324 28.786 112.162 28.108 112.162 27.328V24.772C112.162 23.98 112.324 23.302 112.648 22.738C112.972 22.162 113.434 21.718 114.034 21.406C114.634 21.094 115.342 20.938 116.158 20.938C116.974 20.938 117.682 21.094 118.282 21.406C118.882 21.718 119.344 22.162 119.668 22.738C119.992 23.302 120.154 23.98 120.154 24.772V27.328C120.154 28.108 119.992 28.786 119.668 29.362C119.344 29.938 118.882 30.382 118.282 30.694C117.682 31.006 116.974 31.162 116.158 31.162ZM116.158 29.452C116.818 29.452 117.328 29.272 117.688 28.912C118.048 28.54 118.228 28.012 118.228 27.328V24.772C118.228 24.076 118.048 23.548 117.688 23.188C117.328 22.828 116.818 22.648 116.158 22.648C115.51 22.648 115 22.828 114.628 23.188C114.268 23.548 114.088 24.076 114.088 24.772V27.328C114.088 28.012 114.268 28.54 114.628 28.912C115 29.272 115.51 29.452 116.158 29.452ZM134.144 31L132.722 17.86H134.468L135.35 27.292C135.374 27.532 135.392 27.796 135.404 28.084C135.428 28.372 135.446 28.654 135.458 28.93C135.482 29.206 135.494 29.446 135.494 29.65C135.518 29.446 135.542 29.206 135.566 28.93C135.59 28.654 135.614 28.372 135.638 28.084C135.674 27.796 135.71 27.532 135.746 27.292L136.88 17.86H138.68L139.742 27.292C139.766 27.532 139.79 27.796 139.814 28.084C139.85 28.372 139.886 28.654 139.922 28.93C139.958 29.206 139.982 29.446 139.994 29.65C140.006 29.446 140.018 29.206 140.03 28.93C140.054 28.654 140.078 28.372 140.102 28.084C140.126 27.796 140.15 27.532 140.174 27.292L141.074 17.86H142.766L141.29 31H139.04L137.978 21.442C137.954 21.19 137.93 20.926 137.906 20.65C137.882 20.362 137.858 20.086 137.834 19.822C137.81 19.546 137.786 19.318 137.762 19.138C137.75 19.318 137.732 19.546 137.708 19.822C137.684 20.086 137.66 20.362 137.636 20.65C137.612 20.926 137.582 21.19 137.546 21.442L136.412 31H134.144ZM148.537 31.162C147.721 31.162 147.013 31.006 146.413 30.694C145.813 30.382 145.351 29.938 145.027 29.362C144.703 28.786 144.541 28.108 144.541 27.328V24.772C144.541 23.98 144.703 23.302 145.027 22.738C145.351 22.162 145.813 21.718 146.413 21.406C147.013 21.094 147.721 20.938 148.537 20.938C149.353 20.938 150.061 21.094 150.661 21.406C151.261 21.718 151.723 22.162 152.047 22.738C152.371 23.302 152.533 23.98 152.533 24.772V27.328C152.533 28.108 152.371 28.786 152.047 29.362C151.723 29.938 151.261 30.382 150.661 30.694C150.061 31.006 149.353 31.162 148.537 31.162ZM148.537 29.452C149.197 29.452 149.707 29.272 150.067 28.912C150.427 28.54 150.607 28.012 150.607 27.328V24.772C150.607 24.076 150.427 23.548 150.067 23.188C149.707 22.828 149.197 22.648 148.537 22.648C147.889 22.648 147.379 22.828 147.007 23.188C146.647 23.548 146.467 24.076 146.467 24.772V27.328C146.467 28.012 146.647 28.54 147.007 28.912C147.379 29.272 147.889 29.452 148.537 29.452ZM155.766 31V21.1H157.638V22.99H158.106L157.512 24.16C157.512 23.092 157.746 22.288 158.214 21.748C158.682 21.196 159.378 20.92 160.302 20.92C161.358 20.92 162.192 21.25 162.804 21.91C163.428 22.558 163.74 23.452 163.74 24.592V25.258H161.742V24.754C161.742 24.046 161.562 23.506 161.202 23.134C160.854 22.75 160.362 22.558 159.726 22.558C159.09 22.558 158.592 22.75 158.232 23.134C157.884 23.518 157.71 24.058 157.71 24.754V31H155.766ZM166.289 31V17.86H168.233V25.078H169.979L172.607 21.1H174.803L171.653 25.852L174.857 31H172.625L169.979 26.752H168.233V31H166.289Z" fill="white"/>
<circle cx="25" cy="25" r="9" fill="url(#paint0_radial_2058_12)"/>
<circle cx="25" cy="25" r="3" fill="#00FF1E"/>
<defs>
<radialGradient id="paint0_radial_2058_12" cx="0" cy="0" r="1" gradientUnits="userSpaceOnUse" gradientTransform="translate(25 25) rotate(90) scale(9)">
<stop stop-color="#00FF1E"/>
<stop offset="1" stop-opacity="0"/>
</radialGradient>
</defs>
</svg>
